PowerhouseFilarTrio-Bold.ufo
<glyph name="quotedbl" format="2">
  <advance width="600"/>
  <unicode hex="0022"/>
  <outline>
    <contour>
      <point x="123" y="700" type="line"/>
      <point x="149" y="364" type="line"/>
      <point x="255" y="364" type="line"/>
      <point x="281" y="700" type="line"/>
    </contour>
    <contour>
      <point x="320" y="700" type="line"/>
      <point x="346" y="364" type="line"/>
      <point x="452" y="364" type="line"/>
      <point x="478" y="700" type="line"/>
    </contour>
  </outline>
</glyph>
<glyph name="numbersign" format="2">
  <advance width="680"/>
  <unicode hex="0023"/>
  <outline>
    <contour>
      <point x="362" y="700" type="line"/>
      <point x="237" y="700" type="line"/>
      <point x="71" y="0" type="line"/>
      <point x="196" y="0" type="line"/>
    </contour>
    <contour>
      <point x="658" y="539" type="line"/>
      <point x="73" y="539" type="line"/>
      <point x="73" y="425" type="line"/>
      <point x="658" y="425" type="line"/>
    </contour>
    <contour>
      <point x="600" y="700" type="line"/>
      <point x="475" y="700" type="line"/>
      <point x="309" y="0" type="line"/>
      <point x="434" y="0" type="line"/>
    </contour>
    <contour>
      <point x="607" y="303" type="line"/>
      <point x="22" y="303" type="line"/>
      <point x="22" y="189" type="line"/>
      <point x="607" y="189" type="line"/>
    </contour>
  </outline>
</glyph>
<glyph name="percent" format="2">
  <advance width="680"/>
  <unicode hex="0025"/>
  <outline>
    <contour>
      <point x="182" y="0" type="line"/>
      <point x="606" y="700" type="line"/>
      <point x="498" y="700" type="line"/>
      <point x="74" y="0" type="line"/>
    </contour>
    <contour>
      <point x="36" y="541" type="curve" smooth="yes"/>
      <point x="36" y="440"/>
      <point x="91" y="377"/>
      <point x="172" y="377" type="curve" smooth="yes"/>
      <point x="253" y="377"/>
      <point x="308" y="440"/>
      <point x="308" y="541" type="curve" smooth="yes"/>
      <point x="308" y="642"/>
      <point x="253" y="705"/>
      <point x="172" y="705" type="curve" smooth="yes"/>
      <point x="91" y="705"/>
      <point x="36" y="642"/>
    </contour>
    <contour>
      <point x="131" y="541" type="curve" smooth="yes"/>
      <point x="131" y="589"/>
      <point x="145" y="620"/>
      <point x="172" y="620" type="curve" smooth="yes"/>
      <point x="199" y="620"/>
      <point x="213" y="589"/>
      <point x="213" y="541" type="curve" smooth="yes"/>
      <point x="213" y="493"/>
      <point x="199" y="462"/>
      <point x="172" y="462" type="curve" smooth="yes"/>
      <point x="145" y="462"/>
      <point x="131" y="493"/>
    </contour>
    <contour>
      <point x="372" y="159" type="curve" smooth="yes"/>
      <point x="372" y="58"/>
      <point x="427" y="-5"/>
      <point x="508" y="-5" type="curve" smooth="yes"/>
      <point x="589" y="-5"/>
      <point x="644" y="58"/>
      <point x="644" y="159" type="curve" smooth="yes"/>
      <point x="644" y="260"/>
      <point x="589" y="323"/>
      <point x="508" y="323" type="curve" smooth="yes"/>
      <point x="427" y="323"/>
      <point x="372" y="260"/>
    </contour>
    <contour>
      <point x="467" y="159" type="curve" smooth="yes"/>
      <point x="467" y="207"/>
      <point x="481" y="238"/>
      <point x="508" y="238" type="curve" smooth="yes"/>
      <point x="535" y="238"/>
      <point x="549" y="207"/>
      <point x="549" y="159" type="curve" smooth="yes"/>
      <point x="549" y="111"/>
      <point x="535" y="80"/>
      <point x="508" y="80" type="curve" smooth="yes"/>
      <point x="481" y="80"/>
      <point x="467" y="111"/>
    </contour>
  </outline>
</glyph>
<glyph name="ampersand" format="2">
  <advance width="680"/>
  <unicode hex="0026"/>
  <outline>
    <contour>
      <point x="320" y="334" type="curve"/>
      <point x="244" y="425" type="line"/>
      <point x="110" y="384"/>
      <point x="18" y="315"/>
      <point x="18" y="193" type="curve" smooth="yes"/>
      <point x="18" y="77"/>
      <point x="97" y="-12"/>
      <point x="268" y="-12" type="curve" smooth="yes"/>
      <point x="484" y="-12"/>
      <point x="603" y="139"/>
      <point x="643" y="356" type="curve"/>
      <point x="520" y="374" type="line"/>
      <point x="479" y="178"/>
      <point x="395" y="104"/>
      <point x="279" y="104" type="curve" smooth="yes"/>
      <point x="213" y="104"/>
      <point x="167" y="136"/>
      <point x="167" y="198" type="curve" smooth="yes"/>
      <point x="167" y="255"/>
      <point x="204" y="303"/>
    </contour>
    <contour>
      <point x="676" y="0" type="line"/>
      <point x="300" y="433" type="line" smooth="yes"/>
      <point x="256" y="483"/>
      <point x="241" y="508"/>
      <point x="241" y="537" type="curve" smooth="yes"/>
      <point x="241" y="575"/>
      <point x="268" y="602"/>
      <point x="309" y="602" type="curve" smooth="yes"/>
      <point x="347" y="602"/>
      <point x="375" y="578"/>
      <point x="375" y="539" type="curve" smooth="yes"/>
      <point x="375" y="500"/>
      <point x="348" y="470"/>
      <point x="258" y="427" type="curve"/>
      <point x="332" y="340" type="line"/>
      <point x="452" y="391"/>
      <point x="507" y="455"/>
      <point x="507" y="540" type="curve" smooth="yes"/>
      <point x="507" y="631"/>
      <point x="445" y="712"/>
      <point x="309" y="712" type="curve" smooth="yes"/>
      <point x="177" y="712"/>
      <point x="106" y="620"/>
      <point x="106" y="530" type="curve" smooth="yes"/>
      <point x="106" y="456"/>
      <point x="151" y="407"/>
      <point x="178" y="375" type="curve" smooth="yes"/>
      <point x="503" y="0" type="line"/>
    </contour>
  </outline>
</glyph>
<glyph name="parenleft" format="2">
  <advance width="600"/>
  <unicode hex="0028"/>
  <outline>
    <contour>
      <point x="283" y="316" type="curve" smooth="yes"/>
      <point x="283" y="472"/>
      <point x="355" y="620"/>
      <point x="505" y="745" type="curve"/>
      <point x="355" y="745" type="line"/>
      <point x="214" y="630"/>
      <point x="128" y="472"/>
      <point x="128" y="316" type="curve" smooth="yes"/>
      <point x="128" y="160"/>
      <point x="214" y="2"/>
      <point x="355" y="-113" type="curve"/>
      <point x="505" y="-113" type="line"/>
      <point x="355" y="12"/>
      <point x="283" y="160"/>
    </contour>
  </outline>
</glyph>
<glyph name="slash" format="2">
  <advance width="350"/>
  <unicode hex="002F"/>
  <outline>
    <contour>
      <point x="221" y="745" type="line"/>
      <point x="-33" y="-113" type="line"/>
      <point x="111" y="-113" type="line"/>
      <point x="365" y="745" type="line"/>
    </contour>
  </outline>
</glyph>
<glyph name="less" format="2">
  <advance width="600"/>
  <unicode hex="003C"/>
  <outline>
    <contour>
      <point x="56" y="402" type="line"/>
      <point x="56" y="279" type="line"/>
      <point x="544" y="55" type="line"/>
      <point x="544" y="187" type="line"/>
      <point x="122" y="380" type="line"/>
      <point x="122" y="301" type="line"/>
      <point x="544" y="494" type="line"/>
      <point x="544" y="626" type="line"/>
    </contour>
  </outline>
</glyph>
<glyph name="greater" format="2">
  <advance width="600"/>
  <unicode hex="003E"/>
  <outline>
    <contour>
      <point x="544" y="402" type="line"/>
      <point x="544" y="279" type="line"/>
      <point x="56" y="55" type="line"/>
      <point x="56" y="187" type="line"/>
      <point x="478" y="380" type="line"/>
      <point x="478" y="301" type="line"/>
      <point x="56" y="494" type="line"/>
      <point x="56" y="626" type="line"/>
    </contour>
  </outline>
</glyph>
<glyph name="at" format="2">
  <advance width="680"/>
  <unicode hex="0040"/>
  <outline>
    <contour>
      <point x="34" y="221" type="curve" smooth="yes"/>
      <point x="34" y="4"/>
      <point x="148" y="-140"/>
      <point x="351" y="-140" type="curve" smooth="yes"/>
      <point x="422" y="-140"/>
      <point x="496" y="-120"/>
      <point x="553" y="-83" type="curve"/>
      <point x="523" y="-5" type="line"/>
      <point x="471" y="-34"/>
      <point x="416" y="-50"/>
      <point x="351" y="-50" type="curve" smooth="yes"/>
      <point x="203" y="-50"/>
      <point x="128" y="58"/>
      <point x="128" y="221" type="curve" smooth="yes"/>
      <point x="128" y="420"/>
      <point x="225" y="559"/>
      <point x="369" y="559" type="curve" smooth="yes"/>
      <point x="458" y="559"/>
      <point x="552" y="509"/>
      <point x="552" y="306" type="curve" smooth="yes"/>
      <point x="552" y="203"/>
      <point x="522" y="146"/>
      <point x="489" y="146" type="curve" smooth="yes"/>
      <point x="472" y="146"/>
      <point x="461" y="158"/>
      <point x="463" y="186" type="curve" smooth="yes"/>
      <point x="492" y="451" type="line"/>
      <point x="391" y="451" type="line"/>
      <point x="387" y="411" type="line"/>
      <point x="376" y="440"/>
      <point x="352" y="457"/>
      <point x="321" y="457" type="curve" smooth="yes"/>
      <point x="244" y="457"/>
      <point x="183" y="362"/>
      <point x="183" y="217" type="curve" smooth="yes"/>
      <point x="183" y="108"/>
      <point x="225" y="52"/>
      <point x="288" y="52" type="curve" smooth="yes"/>
      <point x="322" y="52"/>
      <point x="353" y="71"/>
      <point x="374" y="109" type="curve"/>
      <point x="389" y="72"/>
      <point x="425" y="52"/>
      <point x="469" y="52" type="curve" smooth="yes"/>
      <point x="561" y="52"/>
      <point x="646" y="140"/>
      <point x="646" y="306" type="curve" smooth="yes"/>
      <point x="646" y="529"/>
      <point x="535" y="646"/>
      <point x="369" y="646" type="curve" smooth="yes"/>
      <point x="176" y="646"/>
      <point x="34" y="476"/>
    </contour>
    <contour>
      <point x="375" y="298" type="curve" smooth="yes"/>
      <point x="375" y="257"/>
      <point x="364" y="142"/>
      <point x="319" y="142" type="curve" smooth="yes"/>
      <point x="298" y="142"/>
      <point x="283" y="157"/>
      <point x="283" y="210" type="curve" smooth="yes"/>
      <point x="283" y="254"/>
      <point x="294" y="367"/>
      <point x="341" y="367" type="curve" smooth="yes"/>
      <point x="364" y="367"/>
      <point x="375" y="344"/>
    </contour>
  </outline>
</glyph>
<glyph name="B" format="2">
  <advance width="680"/>
  <unicode hex="0042"/>
  <guideline x="333.14" y="1.56" angle="90" name="center" identifier="6ccr2xZpTQ"/>
  <outline>
    <contour>
      <point x="67" y="700" type="line"/>
      <point x="67" y="0" type="line"/>
      <point x="216" y="0" type="line"/>
      <point x="216" y="700" type="line"/>
    </contour>
    <contour>
      <point x="408" y="0" type="line" smooth="yes"/>
      <point x="565" y="0"/>
      <point x="649" y="97"/>
      <point x="649" y="209" type="curve" smooth="yes"/>
      <point x="649" y="304"/>
      <point x="589" y="350"/>
      <point x="530" y="374" type="curve"/>
      <point x="530" y="356" type="line"/>
      <point x="584" y="374"/>
      <point x="634" y="420"/>
      <point x="634" y="503" type="curve" smooth="yes"/>
      <point x="634" y="613"/>
      <point x="554" y="700"/>
      <point x="408" y="700" type="curve" smooth="yes"/>
      <point x="132" y="700" type="line"/>
      <point x="132" y="577" type="line"/>
      <point x="397" y="577" type="line" smooth="yes"/>
      <point x="450" y="577"/>
      <point x="490" y="551"/>
      <point x="490" y="500" type="curve" smooth="yes"/>
      <point x="490" y="448"/>
      <point x="454" y="420"/>
      <point x="401" y="420" type="curve" smooth="yes"/>
      <point x="131" y="420" type="line"/>
      <point x="131" y="298" type="line"/>
      <point x="398" y="298" type="line" smooth="yes"/>
      <point x="449" y="298"/>
      <point x="500" y="272"/>
      <point x="500" y="210" type="curve" smooth="yes"/>
      <point x="500" y="149"/>
      <point x="453" y="123"/>
      <point x="398" y="123" type="curve" smooth="yes"/>
      <point x="132" y="123" type="line"/>
      <point x="132" y="0" type="line"/>
    </contour>
  </outline>
</glyph>
<glyph name="C" format="2">
  <advance width="680"/>
  <unicode hex="0043"/>
  <outline>
    <contour>
      <point x="52" y="350" type="curve" smooth="yes"/>
      <point x="52" y="128"/>
      <point x="185" y="-12"/>
      <point x="366" y="-12" type="curve" smooth="yes"/>
      <point x="508" y="-12"/>
      <point x="604" y="83"/>
      <point x="638" y="216" type="curve"/>
      <point x="505" y="256" type="line"/>
      <point x="479" y="156"/>
      <point x="422" y="116"/>
      <point x="362" y="116" type="curve" smooth="yes"/>
      <point x="269" y="116"/>
      <point x="207" y="199"/>
      <point x="207" y="350" type="curve" smooth="yes"/>
      <point x="207" y="501"/>
      <point x="269" y="584"/>
      <point x="362" y="584" type="curve" smooth="yes"/>
      <point x="422" y="584"/>
      <point x="477" y="544"/>
      <point x="504" y="447" type="curve"/>
      <point x="637" y="486" type="line"/>
      <point x="604" y="618"/>
      <point x="508" y="712"/>
      <point x="362" y="712" type="curve" smooth="yes"/>
      <point x="185" y="712"/>
      <point x="52" y="572"/>
    </contour>
  </outline>
</glyph>
<glyph name="D" format="2">
  <advance width="680"/>
  <unicode hex="0044"/>
  <outline>
    <contour>
      <point x="121" y="123" type="line"/>
      <point x="121" y="0" type="line"/>
      <point x="311" y="0" type="line" smooth="yes"/>
      <point x="520" y="0"/>
      <point x="629" y="149"/>
      <point x="629" y="350" type="curve" smooth="yes"/>
      <point x="629" y="551"/>
      <point x="520" y="700"/>
      <point x="311" y="700" type="curve" smooth="yes"/>
      <point x="121" y="700" type="line"/>
      <point x="121" y="577" type="line"/>
      <point x="304" y="577" type="line" smooth="yes"/>
      <point x="402" y="577"/>
      <point x="474" y="506"/>
      <point x="474" y="350" type="curve" smooth="yes"/>
      <point x="474" y="194"/>
      <point x="402" y="123"/>
      <point x="304" y="123" type="curve" smooth="yes"/>
    </contour>
    <contour>
      <point x="58" y="0" type="line"/>
      <point x="208" y="0" type="line"/>
      <point x="208" y="700" type="line"/>
      <point x="58" y="700" type="line"/>
    </contour>
  </outline>
</glyph>
<glyph name="E" format="2">
  <advance width="600"/>
  <unicode hex="0045"/>
  <outline>
    <contour>
      <point x="58" y="700" type="line"/>
      <point x="58" y="0" type="line"/>
      <point x="208" y="0" type="line"/>
      <point x="208" y="700" type="line"/>
    </contour>
    <contour>
      <point x="119" y="576" type="line"/>
      <point x="536" y="576" type="line"/>
      <point x="536" y="700" type="line"/>
      <point x="119" y="700" type="line"/>
    </contour>
    <contour>
      <point x="129" y="294" type="line"/>
      <point x="425" y="294" type="line"/>
      <point x="425" y="417" type="line"/>
      <point x="129" y="417" type="line"/>
    </contour>
    <contour>
      <point x="123" y="0" type="line"/>
      <point x="550" y="0" type="line"/>
      <point x="550" y="124" type="line"/>
      <point x="123" y="124" type="line"/>
    </contour>
  </outline>
</glyph>
<glyph name="G" format="2">
  <advance width="680"/>
  <unicode hex="0047"/>
  <outline>
    <contour>
      <point x="359" y="712" type="curve" smooth="yes"/>
      <point x="172" y="712"/>
      <point x="48" y="562"/>
      <point x="48" y="350" type="curve" smooth="yes"/>
      <point x="48" y="138"/>
      <point x="160" y="-12"/>
      <point x="329" y="-12" type="curve" smooth="yes"/>
      <point x="434" y="-12"/>
      <point x="506" y="50"/>
      <point x="534" y="144" type="curve"/>
      <point x="500" y="144" type="line"/>
      <point x="500" y="0" type="line"/>
      <point x="622" y="0" type="line"/>
      <point x="622" y="382" type="line"/>
      <point x="384" y="382" type="line"/>
      <point x="384" y="268" type="line"/>
      <point x="543" y="268" type="line"/>
      <point x="501" y="311" type="line"/>
      <point x="501" y="287" type="line" smooth="yes"/>
      <point x="501" y="176"/>
      <point x="438" y="115"/>
      <point x="359" y="115" type="curve" smooth="yes"/>
      <point x="257" y="115"/>
      <point x="203" y="203"/>
      <point x="203" y="350" type="curve" smooth="yes"/>
      <point x="203" y="497"/>
      <point x="268" y="585"/>
      <point x="359" y="585" type="curve" smooth="yes"/>
      <point x="422" y="585"/>
      <point x="467" y="542"/>
      <point x="487" y="468" type="curve"/>
      <point x="617" y="510" type="line"/>
      <point x="584" y="620"/>
      <point x="503" y="712"/>
    </contour>
  </outline>
</glyph>
<glyph name="H" format="2">
  <advance width="680"/>
  <unicode hex="0048"/>
  <outline>
    <contour>
      <point x="121" y="299" type="line"/>
      <point x="560" y="299" type="line"/>
      <point x="560" y="423" type="line"/>
      <point x="121" y="423" type="line"/>
    </contour>
    <contour>
      <point x="471" y="700" type="line"/>
      <point x="471" y="0" type="line"/>
      <point x="622" y="0" type="line"/>
      <point x="622" y="700" type="line"/>
    </contour>
    <contour>
      <point x="58" y="700" type="line"/>
      <point x="58" y="0" type="line"/>
      <point x="209" y="0" type="line"/>
      <point x="209" y="700" type="line"/>
    </contour>
  </outline>
</glyph>
<glyph name="L" format="2">
  <advance width="600"/>
  <unicode hex="004C"/>
  <guideline x="149" y="700" angle="90" name="acute" identifier="DRfstxvOlL"/>
  <outline>
    <contour>
      <point x="149" y="124" type="line"/>
      <point x="149" y="0" type="line"/>
      <point x="545" y="0" type="line"/>
      <point x="545" y="124" type="line"/>
    </contour>
    <contour>
      <point x="88" y="700" type="line"/>
      <point x="88" y="0" type="line"/>
      <point x="239" y="0" type="line"/>
      <point x="239" y="700" type="line"/>
    </contour>
  </outline>
</glyph>
<glyph name="M" format="2">
  <advance width="680"/>
  <unicode hex="004D"/>
  <outline>
    <contour>
      <point x="175" y="597" type="line"/>
      <point x="315" y="168" type="line"/>
      <point x="364" y="168" type="line"/>
      <point x="512" y="626" type="line"/>
      <point x="480" y="626" type="line"/>
      <point x="480" y="0" type="line"/>
      <point x="621" y="0" type="line"/>
      <point x="621" y="700" type="line"/>
      <point x="430" y="700" type="line"/>
      <point x="321" y="366" type="line"/>
      <point x="360" y="366" type="line"/>
      <point x="250" y="700" type="line"/>
      <point x="59" y="700" type="line"/>
      <point x="59" y="0" type="line"/>
      <point x="200" y="0" type="line"/>
      <point x="200" y="623" type="line"/>
    </contour>
  </outline>
</glyph>
<glyph name="N" format="2">
  <advance width="680"/>
  <unicode hex="004E"/>
  <outline>
    <contour>
      <point x="546" y="118" type="line"/>
      <point x="256" y="700" type="line"/>
      <point x="58" y="700" type="line"/>
      <point x="58" y="0" type="line"/>
      <point x="201" y="0" type="line"/>
      <point x="201" y="580" type="line"/>
      <point x="166" y="580" type="line"/>
      <point x="456" y="0" type="line"/>
      <point x="622" y="0" type="line"/>
      <point x="622" y="700" type="line"/>
      <point x="479" y="700" type="line"/>
      <point x="479" y="118" type="line"/>
    </contour>
  </outline>
</glyph>
<glyph name="O" format="2">
  <advance width="680"/>
  <unicode hex="004F"/>
  <outline>
    <contour>
      <point x="340" y="712" type="curve" smooth="yes"/>
      <point x="158" y="712"/>
      <point x="31" y="564"/>
      <point x="31" y="350" type="curve" smooth="yes"/>
      <point x="31" y="136"/>
      <point x="158" y="-12"/>
      <point x="340" y="-12" type="curve" smooth="yes"/>
      <point x="522" y="-12"/>
      <point x="649" y="136"/>
      <point x="649" y="350" type="curve" smooth="yes"/>
      <point x="649" y="564"/>
      <point x="522" y="712"/>
    </contour>
    <contour>
      <point x="340" y="116" type="curve" smooth="yes"/>
      <point x="249" y="116"/>
      <point x="186" y="199"/>
      <point x="186" y="350" type="curve" smooth="yes"/>
      <point x="186" y="501"/>
      <point x="249" y="584"/>
      <point x="340" y="584" type="curve" smooth="yes"/>
      <point x="431" y="584"/>
      <point x="494" y="501"/>
      <point x="494" y="350" type="curve" smooth="yes"/>
      <point x="494" y="199"/>
      <point x="431" y="116"/>
    </contour>
  </outline>
</glyph>
<glyph name="U" format="2">
  <advance width="680"/>
  <unicode hex="0055"/>
  <outline>
    <contour>
      <point x="624" y="700" type="line"/>
      <point x="479" y="700" type="line"/>
      <point x="479" y="255" type="line" smooth="yes"/>
      <point x="479" y="171"/>
      <point x="427" y="117"/>
      <point x="341" y="117" type="curve" smooth="yes"/>
      <point x="254" y="117"/>
      <point x="202" y="171"/>
      <point x="202" y="255" type="curve" smooth="yes"/>
      <point x="202" y="700" type="line"/>
      <point x="56" y="700" type="line"/>
      <point x="56" y="247" type="line" smooth="yes"/>
      <point x="56" y="90"/>
      <point x="160" y="-12"/>
      <point x="341" y="-12" type="curve" smooth="yes"/>
      <point x="522" y="-12"/>
      <point x="624" y="90"/>
      <point x="624" y="247" type="curve" smooth="yes"/>
    </contour>
  </outline>
</glyph>
<glyph name="V" format="2">
  <advance width="680"/>
  <unicode hex="0056"/>
  <outline>
    <contour>
      <point x="176" y="700" type="line"/>
      <point x="18" y="700" type="line"/>
      <point x="267" y="0" type="line"/>
      <point x="417" y="0" type="line"/>
      <point x="661" y="700" type="line"/>
      <point x="506" y="700" type="line"/>
      <point x="289" y="57" type="line"/>
      <point x="398" y="57" type="line"/>
    </contour>
  </outline>
</glyph>
<glyph name="W" format="2">
  <advance width="680"/>
  <unicode hex="0057"/>
  <outline>
    <contour>
      <point x="563" y="0" type="line"/>
      <point x="665" y="700" type="line"/>
      <point x="529" y="700" type="line"/>
      <point x="453" y="114" type="line"/>
      <point x="507" y="114" type="line"/>
      <point x="398" y="560" type="line"/>
      <point x="284" y="560" type="line"/>
      <point x="177" y="114" type="line"/>
      <point x="232" y="114" type="line"/>
      <point x="157" y="700" type="line"/>
      <point x="15" y="700" type="line"/>
      <point x="117" y="0" type="line"/>
      <point x="246" y="0" type="line"/>
      <point x="362" y="491" type="line"/>
      <point x="316" y="491" type="line"/>
      <point x="434" y="0" type="line"/>
    </contour>
  </outline>
</glyph>
<glyph name="backslash" format="2">
  <advance width="350"/>
  <unicode hex="005C"/>
  <outline>
    <contour>
      <point x="129" y="745" type="line"/>
      <point x="383" y="-113" type="line"/>
      <point x="239" y="-113" type="line"/>
      <point x="-15" y="745" type="line"/>
    </contour>
  </outline>
</glyph>
<glyph name="underscore" format="2">
  <advance width="350"/>
  <unicode hex="005F"/>
  <outline>
    <contour>
      <point x="6" y="-161" type="line"/>
      <point x="344" y="-161" type="line"/>
      <point x="344" y="-49" type="line"/>
      <point x="6" y="-49" type="line"/>
    </contour>
  </outline>
</glyph>
<glyph name="d" format="2">
  <advance width="600"/>
  <unicode hex="0064"/>
  <guideline x="287" y="646" angle="90" name="center" identifier="D9hmoAOQbG"/>
  <outline>
    <contour>
      <point x="247" y="512" type="curve" smooth="yes"/>
      <point x="136" y="512"/>
      <point x="36" y="421"/>
      <point x="36" y="249" type="curve" smooth="yes"/>
      <point x="36" y="76"/>
      <point x="136" y="-12"/>
      <point x="247" y="-12" type="curve" smooth="yes"/>
      <point x="335" y="-12"/>
      <point x="403" y="38"/>
      <point x="434" y="119" type="curve"/>
      <point x="401" y="119" type="line"/>
      <point x="401" y="0" type="line"/>
      <point x="541" y="0" type="line"/>
      <point x="541" y="700" type="line"/>
      <point x="401" y="700" type="line"/>
      <point x="401" y="379" type="line"/>
      <point x="434" y="379" type="line"/>
      <point x="403" y="460"/>
      <point x="335" y="512"/>
    </contour>
    <contour>
      <point x="292" y="104" type="curve" smooth="yes"/>
      <point x="223" y="104"/>
      <point x="177" y="154"/>
      <point x="177" y="250" type="curve" smooth="yes"/>
      <point x="177" y="346"/>
      <point x="223" y="396"/>
      <point x="292" y="396" type="curve" smooth="yes"/>
      <point x="361" y="396"/>
      <point x="407" y="346"/>
      <point x="407" y="250" type="curve" smooth="yes"/>
      <point x="407" y="154"/>
      <point x="361" y="104"/>
    </contour>
  </outline>
</glyph>
<glyph name="k" format="2">
  <advance width="600"/>
  <unicode hex="006B"/>
  <outline>
    <contour>
      <point x="81" y="0" type="line"/>
      <point x="221" y="0" type="line"/>
      <point x="221" y="700" type="line"/>
      <point x="81" y="700" type="line"/>
    </contour>
    <contour>
      <point x="164" y="256" type="line"/>
      <point x="160" y="100" type="line"/>
      <point x="319" y="255" type="line"/>
      <point x="357" y="277" type="line"/>
      <point x="588" y="500" type="line"/>
      <point x="414" y="500" type="line"/>
    </contour>
    <contour>
      <point x="240" y="260" type="line"/>
      <point x="433" y="0" type="line"/>
      <point x="596" y="0" type="line"/>
      <point x="340" y="345" type="line"/>
    </contour>
  </outline>
</glyph>
<glyph name="m" format="2">
  <advance width="680"/>
  <unicode hex="006D"/>
  <outline>
    <contour>
      <point x="343" y="339" type="line"/>
      <point x="403" y="339" type="line"/>
      <point x="403" y="376"/>
      <point x="422" y="399"/>
      <point x="452" y="399" type="curve" smooth="yes"/>
      <point x="481" y="399"/>
      <point x="495" y="378"/>
      <point x="495" y="348" type="curve" smooth="yes"/>
      <point x="495" y="0" type="line"/>
      <point x="622" y="0" type="line"/>
      <point x="622" y="388" type="line" smooth="yes"/>
      <point x="622" y="460"/>
      <point x="581" y="512"/>
      <point x="507" y="512" type="curve" smooth="yes"/>
      <point x="448" y="512"/>
      <point x="397" y="474"/>
      <point x="375" y="417" type="curve"/>
      <point x="343" y="416" type="line"/>
    </contour>
    <contour>
      <point x="57" y="500" type="line"/>
      <point x="57" y="0" type="line"/>
      <point x="184" y="0" type="line"/>
      <point x="184" y="339" type="line" smooth="yes"/>
      <point x="184" y="376"/>
      <point x="202" y="399"/>
      <point x="232" y="399" type="curve" smooth="yes"/>
      <point x="262" y="399"/>
      <point x="276" y="378"/>
      <point x="276" y="348" type="curve" smooth="yes"/>
      <point x="276" y="0" type="line"/>
      <point x="403" y="0" type="line"/>
      <point x="403" y="388" type="line" smooth="yes"/>
      <point x="403" y="460"/>
      <point x="361" y="512"/>
      <point x="288" y="512" type="curve" smooth="yes"/>
      <point x="230" y="512"/>
      <point x="187" y="468"/>
      <point x="164" y="414" type="curve"/>
      <point x="184" y="404" type="line"/>
      <point x="184" y="500" type="line"/>
    </contour>
  </outline>
</glyph>
<glyph name="o" format="2">
  <advance width="600"/>
  <unicode hex="006F"/>
  <outline>
    <contour>
      <point x="300" y="-12" type="curve" smooth="yes"/>
      <point x="446" y="-12"/>
      <point x="555" y="91"/>
      <point x="555" y="250" type="curve" smooth="yes"/>
      <point x="555" y="409"/>
      <point x="446" y="512"/>
      <point x="300" y="512" type="curve" smooth="yes"/>
      <point x="154" y="512"/>
      <point x="45" y="409"/>
      <point x="45" y="250" type="curve" smooth="yes"/>
      <point x="45" y="91"/>
      <point x="154" y="-12"/>
    </contour>
    <contour>
      <point x="300" y="396" type="curve" smooth="yes"/>
      <point x="371" y="396"/>
      <point x="414" y="344"/>
      <point x="414" y="250" type="curve" smooth="yes"/>
      <point x="414" y="156"/>
      <point x="371" y="104"/>
      <point x="300" y="104" type="curve" smooth="yes"/>
      <point x="229" y="104"/>
      <point x="186" y="156"/>
      <point x="186" y="250" type="curve" smooth="yes"/>
      <point x="186" y="344"/>
      <point x="229" y="396"/>
    </contour>
  </outline>
</glyph>
<glyph name="t" format="2">
  <advance width="600"/>
  <unicode hex="0074"/>
  <guideline x="227" y="692" angle="90" name="center" identifier="NDE2RZEQuj"/>
  <outline>
    <contour>
      <point x="27" y="393" type="line"/>
      <point x="531" y="393" type="line"/>
      <point x="531" y="500" type="line"/>
      <point x="27" y="500" type="line"/>
    </contour>
    <contour>
      <point x="410" y="-12" type="curve" smooth="yes"/>
      <point x="462" y="-12"/>
      <point x="505" y="-7"/>
      <point x="537" y="1" type="curve"/>
      <point x="537" y="108" type="line"/>
      <point x="506" y="103"/>
      <point x="475" y="101"/>
      <point x="444" y="101" type="curve" smooth="yes"/>
      <point x="351" y="101"/>
      <point x="329" y="140"/>
      <point x="329" y="196" type="curve" smooth="yes"/>
      <point x="329" y="643" type="line"/>
      <point x="189" y="643" type="line"/>
      <point x="189" y="177" type="line" smooth="yes"/>
      <point x="189" y="62"/>
      <point x="247" y="-12"/>
    </contour>
  </outline>
</glyph>
<glyph name="u" format="2">
  <advance width="600"/>
  <unicode hex="0075"/>
  <outline>
    <contour>
      <point x="529" y="0" type="line"/>
      <point x="529" y="500" type="line"/>
      <point x="389" y="500" type="line"/>
      <point x="389" y="212" type="line" smooth="yes"/>
      <point x="389" y="152"/>
      <point x="351" y="109"/>
      <point x="289" y="109" type="curve" smooth="yes"/>
      <point x="225" y="109"/>
      <point x="200" y="154"/>
      <point x="200" y="205" type="curve" smooth="yes"/>
      <point x="200" y="500" type="line"/>
      <point x="60" y="500" type="line"/>
      <point x="60" y="166" type="line" smooth="yes"/>
      <point x="60" y="58"/>
      <point x="123" y="-12"/>
      <point x="232" y="-12" type="curve" smooth="yes"/>
      <point x="318" y="-12"/>
      <point x="382" y="41"/>
      <point x="409" y="100" type="curve"/>
      <point x="389" y="98" type="line"/>
      <point x="389" y="0" type="line"/>
    </contour>
  </outline>
</glyph>
<glyph name="z" format="2">
  <advance width="600"/>
  <unicode hex="007A"/>
  <outline>
    <contour>
      <point x="68" y="96" type="line"/>
      <point x="68" y="0" type="line"/>
      <point x="535" y="0" type="line"/>
      <point x="535" y="108" type="line"/>
      <point x="121" y="108" type="line"/>
      <point x="209" y="66" type="line"/>
      <point x="532" y="410" type="line"/>
      <point x="532" y="500" type="line"/>
      <point x="67" y="500" type="line"/>
      <point x="67" y="390" type="line"/>
      <point x="484" y="390" type="line"/>
      <point x="391" y="441" type="line"/>
    </contour>
  </outline>
</glyph>
<glyph name="braceright" format="2">
  <advance width="600"/>
  <unicode hex="007D"/>
  <outline>
    <contour>
      <point x="235" y="172" type="line" smooth="yes"/>
      <point x="235" y="251"/>
      <point x="248" y="296"/>
      <point x="317" y="316" type="curve"/>
      <point x="248" y="336"/>
      <point x="235" y="381"/>
      <point x="235" y="460" type="curve" smooth="yes"/>
      <point x="235" y="556" type="line" smooth="yes"/>
      <point x="235" y="613"/>
      <point x="208" y="642"/>
      <point x="143" y="642" type="curve" smooth="yes"/>
      <point x="117" y="642" type="line"/>
      <point x="117" y="745" type="line"/>
      <point x="158" y="745" type="line" smooth="yes"/>
      <point x="311" y="745"/>
      <point x="380" y="679"/>
      <point x="380" y="564" type="curve" smooth="yes"/>
      <point x="380" y="460" type="line" smooth="yes"/>
      <point x="380" y="397"/>
      <point x="396" y="375"/>
      <point x="449" y="375" type="curve" smooth="yes"/>
      <point x="482" y="375" type="line"/>
      <point x="482" y="257" type="line"/>
      <point x="449" y="257" type="line" smooth="yes"/>
      <point x="396" y="257"/>
      <point x="380" y="235"/>
      <point x="380" y="172" type="curve" smooth="yes"/>
      <point x="380" y="68" type="line" smooth="yes"/>
      <point x="380" y="-48"/>
      <point x="349" y="-113"/>
      <point x="158" y="-113" type="curve" smooth="yes"/>
      <point x="117" y="-113" type="line"/>
      <point x="117" y="-9" type="line"/>
      <point x="143" y="-9" type="line" smooth="yes"/>
      <point x="208" y="-9"/>
      <point x="235" y="17"/>
      <point x="235" y="75" type="curve" smooth="yes"/>
    </contour>
  </outline>
</glyph>
<glyph name="asciitilde" format="2">
  <advance width="600"/>
  <unicode hex="007E"/>
  <outline>
    <contour>
      <point x="392" y="232" type="curve" smooth="yes"/>
      <point x="465" y="232"/>
      <point x="529" y="297" name="inserted"/>
      <point x="538" y="408" type="curve"/>
      <point x="434" y="408" type="line"/>
      <point x="428" y="371"/>
      <point x="407" y="352" name="inserted"/>
      <point x="380" y="352" type="curve" smooth="yes"/>
      <point x="338" y="352"/>
      <point x="273" y="400" name="inserted"/>
      <point x="209" y="400" type="curve" smooth="yes"/>
      <point x="136" y="400"/>
      <point x="72" y="336" name="inserted"/>
      <point x="63" y="225" type="curve"/>
      <point x="167" y="225" type="line"/>
      <point x="173" y="262"/>
      <point x="194" y="280" name="inserted"/>
      <point x="221" y="280" type="curve" smooth="yes"/>
      <point x="263" y="280"/>
      <point x="328" y="232" name="inserted"/>
    </contour>
  </outline>
</glyph>
<glyph name="cent" format="2">
  <advance width="600"/>
  <unicode hex="00A2"/>
  <outline>
    <contour>
      <point x="549" y="351" type="line"/>
      <point x="524" y="448"/>
      <point x="432" y="512"/>
      <point x="320" y="512" type="curve" smooth="yes"/>
      <point x="171" y="512"/>
      <point x="68" y="409"/>
      <point x="68" y="250" type="curve" smooth="yes"/>
      <point x="68" y="91"/>
      <point x="171" y="-12"/>
      <point x="320" y="-12" type="curve" smooth="yes"/>
      <point x="432" y="-12"/>
      <point x="524" y="47"/>
      <point x="549" y="147" type="curve"/>
      <point x="416" y="182" type="line"/>
      <point x="402" y="120"/>
      <point x="364" y="101"/>
      <point x="320" y="101" type="curve" smooth="yes"/>
      <point x="253" y="101"/>
      <point x="208" y="148"/>
      <point x="208" y="250" type="curve" smooth="yes"/>
      <point x="208" y="352"/>
      <point x="253" y="399"/>
      <point x="320" y="399" type="curve" smooth="yes"/>
      <point x="364" y="399"/>
      <point x="405" y="380"/>
      <point x="416" y="316" type="curve"/>
    </contour>
    <contour>
      <point x="264" y="-112" type="line"/>
      <point x="358" y="-112" type="line"/>
      <point x="358" y="597" type="line"/>
      <point x="264" y="597" type="line"/>
    </contour>
  </outline>
</glyph>
<glyph name="currency" format="2">
  <advance width="680"/>
  <unicode hex="00A4"/>
  <outline>
    <contour>
      <point x="340" y="234" type="curve" smooth="yes"/>
      <point x="279" y="234"/>
      <point x="234" y="281"/>
      <point x="234" y="345" type="curve" smooth="yes"/>
      <point x="234" y="409"/>
      <point x="279" y="456"/>
      <point x="340" y="456" type="curve" smooth="yes"/>
      <point x="401" y="456"/>
      <point x="446" y="409"/>
      <point x="446" y="345" type="curve" smooth="yes"/>
      <point x="446" y="281"/>
      <point x="401" y="234"/>
    </contour>
    <contour>
      <point x="340" y="122" type="curve" smooth="yes"/>
      <point x="463" y="122"/>
      <point x="560" y="221"/>
      <point x="560" y="345" type="curve" smooth="yes"/>
      <point x="560" y="469"/>
      <point x="463" y="568"/>
      <point x="340" y="568" type="curve" smooth="yes"/>
      <point x="217" y="568"/>
      <point x="120" y="469"/>
      <point x="120" y="345" type="curve" smooth="yes"/>
      <point x="120" y="221"/>
      <point x="217" y="122"/>
    </contour>
    <contour>
      <point x="254" y="180" type="line"/>
      <point x="175" y="259" type="line"/>
      <point x="73" y="157" type="line"/>
      <point x="152" y="78" type="line"/>
    </contour>
    <contour>
      <point x="505" y="431" type="line"/>
      <point x="607" y="533" type="line"/>
      <point x="528" y="612" type="line"/>
      <point x="426" y="510" type="line"/>
    </contour>
    <contour>
      <point x="175" y="431" type="line"/>
      <point x="254" y="510" type="line"/>
      <point x="152" y="612" type="line"/>
      <point x="73" y="533" type="line"/>
    </contour>
    <contour>
      <point x="528" y="78" type="line"/>
      <point x="607" y="157" type="line"/>
      <point x="505" y="259" type="line"/>
      <point x="426" y="180" type="line"/>
    </contour>
  </outline>
</glyph>
<glyph name="copyright" format="2">
  <advance width="680"/>
  <unicode hex="00A9"/>
  <outline>
    <contour>
      <point x="485" y="475" type="line"/>
      <point x="467" y="537"/>
      <point x="412" y="574"/>
      <point x="343" y="574" type="curve" smooth="yes"/>
      <point x="253" y="574"/>
      <point x="190" y="508"/>
      <point x="190" y="417" type="curve" smooth="yes"/>
      <point x="190" y="326"/>
      <point x="253" y="259"/>
      <point x="343" y="259" type="curve" smooth="yes"/>
      <point x="412" y="259"/>
      <point x="468" y="297"/>
      <point x="485" y="359" type="curve"/>
      <point x="406" y="382" type="line"/>
      <point x="396" y="353"/>
      <point x="378" y="333"/>
      <point x="344" y="333" type="curve" smooth="yes"/>
      <point x="304" y="333"/>
      <point x="276" y="364"/>
      <point x="276" y="417" type="curve" smooth="yes"/>
      <point x="276" y="470"/>
      <point x="304" y="500"/>
      <point x="344" y="500" type="curve" smooth="yes"/>
      <point x="378" y="500"/>
      <point x="397" y="482"/>
      <point x="406" y="452" type="curve"/>
    </contour>
    <contour>
      <point x="49" y="416" type="curve" smooth="yes"/>
      <point x="49" y="254"/>
      <point x="174" y="124"/>
      <point x="340" y="124" type="curve" smooth="yes"/>
      <point x="506" y="124"/>
      <point x="630" y="254"/>
      <point x="630" y="416" type="curve" smooth="yes"/>
      <point x="630" y="579"/>
      <point x="506" y="709"/>
      <point x="340" y="709" type="curve" smooth="yes"/>
      <point x="174" y="709"/>
      <point x="49" y="579"/>
    </contour>
    <contour>
      <point x="554" y="416" type="curve" smooth="yes"/>
      <point x="554" y="289"/>
      <point x="467" y="196"/>
      <point x="340" y="196" type="curve" smooth="yes"/>
      <point x="212" y="196"/>
      <point x="126" y="289"/>
      <point x="126" y="416" type="curve" smooth="yes"/>
      <point x="126" y="543"/>
      <point x="212" y="637"/>
      <point x="340" y="637" type="curve" smooth="yes"/>
      <point x="467" y="637"/>
      <point x="554" y="543"/>
    </contour>
  </outline>
</glyph>
<glyph name="ordfeminine" format="2">
  <advance width="350"/>
  <unicode hex="00AA"/>
  <outline>
    <contour>
      <point x="-3" y="423" type="curve" smooth="yes"/>
      <point x="-3" y="346"/>
      <point x="53" y="298"/>
      <point x="129" y="298" type="curve" smooth="yes"/>
      <point x="175" y="298"/>
      <point x="214" y="316"/>
      <point x="237" y="345" type="curve"/>
      <point x="253" y="312"/>
      <point x="286" y="302"/>
      <point x="322" y="302" type="curve" smooth="yes"/>
      <point x="334" y="302"/>
      <point x="341" y="303"/>
      <point x="351" y="304" type="curve"/>
      <point x="351" y="388" type="line"/>
      <point x="345" y="388" type="line" smooth="yes"/>
      <point x="336" y="388"/>
      <point x="331" y="395"/>
      <point x="331" y="404" type="curve" smooth="yes"/>
      <point x="331" y="580" type="line" smooth="yes"/>
      <point x="331" y="664"/>
      <point x="282" y="712"/>
      <point x="179" y="712" type="curve" smooth="yes"/>
      <point x="67" y="712"/>
      <point x="16" y="644"/>
      <point x="13" y="583" type="curve"/>
      <point x="131" y="564" type="line"/>
      <point x="131" y="600"/>
      <point x="141" y="624"/>
      <point x="177" y="624" type="curve" smooth="yes"/>
      <point x="208" y="624"/>
      <point x="216" y="606"/>
      <point x="216" y="572" type="curve" smooth="yes"/>
      <point x="216" y="554" type="line"/>
      <point x="132" y="543" type="line" smooth="yes"/>
      <point x="50" y="534"/>
      <point x="-3" y="495"/>
    </contour>
    <contour>
      <point x="216" y="444" type="line" smooth="yes"/>
      <point x="216" y="404"/>
      <point x="188" y="382"/>
      <point x="156" y="382" type="curve" smooth="yes"/>
      <point x="134" y="382"/>
      <point x="114" y="398"/>
      <point x="114" y="424" type="curve" smooth="yes"/>
      <point x="114" y="453"/>
      <point x="133" y="466"/>
      <point x="170" y="471" type="curve" smooth="yes"/>
      <point x="216" y="478" type="line"/>
    </contour>
  </outline>
</glyph>
<glyph name="logicalnot" format="2">
  <advance width="680"/>
  <unicode hex="00AC"/>
  <outline>
    <contour>
      <point x="64" y="275" type="line"/>
      <point x="550" y="275" type="line"/>
      <point x="483" y="338" type="line"/>
      <point x="483" y="52" type="line"/>
      <point x="617" y="52" type="line"/>
      <point x="617" y="403" type="line"/>
      <point x="64" y="403" type="line"/>
    </contour>
  </outline>
</glyph>
<glyph name="ordmasculine" format="2">
  <advance width="350"/>
  <unicode hex="00BA"/>
  <outline>
    <contour>
      <point x="175" y="298" type="curve" smooth="yes"/>
      <point x="274" y="298"/>
      <point x="344" y="369"/>
      <point x="344" y="505" type="curve" smooth="yes"/>
      <point x="344" y="641"/>
      <point x="274" y="712"/>
      <point x="175" y="712" type="curve" smooth="yes"/>
      <point x="76" y="712"/>
      <point x="6" y="641"/>
      <point x="6" y="505" type="curve" smooth="yes"/>
      <point x="6" y="369"/>
      <point x="76" y="298"/>
    </contour>
    <contour>
      <point x="175" y="617" type="curve" smooth="yes"/>
      <point x="207" y="617"/>
      <point x="225" y="587"/>
      <point x="225" y="505" type="curve" smooth="yes"/>
      <point x="225" y="423"/>
      <point x="207" y="393"/>
      <point x="175" y="393" type="curve" smooth="yes"/>
      <point x="143" y="393"/>
      <point x="125" y="423"/>
      <point x="125" y="505" type="curve" smooth="yes"/>
      <point x="125" y="587"/>
      <point x="143" y="617"/>
    </contour>
  </outline>
</glyph>
<glyph name="AE" format="2">
  <advance width="680"/>
  <unicode hex="00C6"/>
  <outline>
    <contour>
      <point x="184" y="700" type="line"/>
      <point x="25" y="0" type="line"/>
      <point x="166" y="0" type="line"/>
      <point x="292" y="576" type="line"/>
      <point x="365" y="576" type="line"/>
      <point x="365" y="700" type="line"/>
    </contour>
    <contour>
      <point x="138" y="276" type="line"/>
      <point x="138" y="154" type="line"/>
      <point x="392" y="154" type="line"/>
      <point x="392" y="276" type="line"/>
    </contour>
    <contour>
      <point x="392" y="417" type="line"/>
      <point x="392" y="294" type="line"/>
      <point x="581" y="294" type="line"/>
      <point x="581" y="417" type="line"/>
    </contour>
    <contour>
      <point x="386" y="124" type="line"/>
      <point x="386" y="0" type="line"/>
      <point x="656" y="0" type="line"/>
      <point x="656" y="124" type="line"/>
    </contour>
    <contour>
      <point x="382" y="700" type="line"/>
      <point x="382" y="576" type="line"/>
      <point x="638" y="576" type="line"/>
      <point x="638" y="700" type="line"/>
    </contour>
    <contour>
      <point x="325" y="700" type="line"/>
      <point x="325" y="0" type="line"/>
      <point x="462" y="0" type="line"/>
      <point x="462" y="700" type="line"/>
    </contour>
  </outline>
</glyph>
<glyph name="Eth" format="2">
  <advance width="680"/>
  <unicode hex="00D0"/>
  <outline>
    <contour>
      <point x="141" y="123" type="line"/>
      <point x="141" y="0" type="line"/>
      <point x="331" y="0" type="line" smooth="yes"/>
      <point x="540" y="0"/>
      <point x="649" y="149"/>
      <point x="649" y="350" type="curve" smooth="yes"/>
      <point x="649" y="551"/>
      <point x="540" y="700"/>
      <point x="331" y="700" type="curve" smooth="yes"/>
      <point x="141" y="700" type="line"/>
      <point x="141" y="577" type="line"/>
      <point x="324" y="577" type="line" smooth="yes"/>
      <point x="422" y="577"/>
      <point x="494" y="506"/>
      <point x="494" y="350" type="curve" smooth="yes"/>
      <point x="494" y="194"/>
      <point x="422" y="123"/>
      <point x="324" y="123" type="curve" smooth="yes"/>
    </contour>
    <contour>
      <point x="78" y="0" type="line"/>
      <point x="228" y="0" type="line"/>
      <point x="228" y="700" type="line"/>
      <point x="78" y="700" type="line"/>
    </contour>
    <contour>
      <point x="16" y="297" type="line"/>
      <point x="357" y="297" type="line"/>
      <point x="357" y="418" type="line"/>
      <point x="16" y="418" type="line"/>
    </contour>
  </outline>
</glyph>
<glyph name="Oslash" format="2">
  <advance width="680"/>
  <unicode hex="00D8"/>
  <outline>
    <contour>
      <point x="36.32" y="36.424" type="line"/>
      <point x="129.68" y="-32.424" type="line"/>
      <point x="643.68" y="664.576" type="line"/>
      <point x="550.32" y="733.424" type="line"/>
    </contour>
    <contour>
      <point x="340" y="712" type="curve" smooth="yes"/>
      <point x="158" y="712"/>
      <point x="31" y="564"/>
      <point x="31" y="350" type="curve" smooth="yes"/>
      <point x="31" y="136"/>
      <point x="158" y="-12"/>
      <point x="340" y="-12" type="curve" smooth="yes"/>
      <point x="522" y="-12"/>
      <point x="649" y="136"/>
      <point x="649" y="350" type="curve" smooth="yes"/>
      <point x="649" y="564"/>
      <point x="522" y="712"/>
    </contour>
    <contour>
      <point x="340" y="116" type="curve" smooth="yes"/>
      <point x="243" y="116"/>
      <point x="176" y="199"/>
      <point x="176" y="350" type="curve" smooth="yes"/>
      <point x="176" y="501"/>
      <point x="243" y="584"/>
      <point x="340" y="584" type="curve" smooth="yes"/>
      <point x="437" y="584"/>
      <point x="504" y="501"/>
      <point x="504" y="350" type="curve" smooth="yes"/>
      <point x="504" y="199"/>
      <point x="437" y="116"/>
    </contour>
  </outline>
</glyph>
<glyph name="ae" format="2">
  <advance width="680"/>
  <unicode hex="00E6"/>
  <outline>
    <contour>
      <point x="25" y="145" type="curve" smooth="yes"/>
      <point x="25" y="49"/>
      <point x="84" y="-12"/>
      <point x="182" y="-12" type="curve" smooth="yes"/>
      <point x="336" y="-12"/>
      <point x="364" y="123"/>
      <point x="364" y="210" type="curve" smooth="yes"/>
      <point x="375" y="362" type="line" smooth="yes"/>
      <point x="375" y="443"/>
      <point x="320" y="512"/>
      <point x="215" y="512" type="curve" smooth="yes"/>
      <point x="106" y="512"/>
      <point x="47" y="451"/>
      <point x="37" y="350" type="curve"/>
      <point x="159" y="328" type="line"/>
      <point x="165" y="383"/>
      <point x="180" y="407"/>
      <point x="220" y="407" type="curve" smooth="yes"/>
      <point x="251" y="407"/>
      <point x="270" y="391"/>
      <point x="270" y="349" type="curve" smooth="yes"/>
      <point x="270" y="159" type="line" smooth="yes"/>
      <point x="270" y="112"/>
      <point x="239" y="89"/>
      <point x="203" y="89" type="curve" smooth="yes"/>
      <point x="168" y="89"/>
      <point x="147" y="109"/>
      <point x="147" y="144" type="curve" smooth="yes"/>
      <point x="147" y="177"/>
      <point x="171" y="202"/>
      <point x="220" y="205" type="curve" smooth="yes"/>
      <point x="333" y="212" type="line"/>
      <point x="333" y="312" type="line"/>
      <point x="197" y="305" type="line" smooth="yes"/>
      <point x="94" y="299"/>
      <point x="25" y="240"/>
    </contour>
    <contour>
      <point x="293" y="240" type="curve" smooth="yes"/>
      <point x="293" y="81"/>
      <point x="350" y="-12"/>
      <point x="477" y="-12" type="curve" smooth="yes"/>
      <point x="552" y="-12"/>
      <point x="624" y="34"/>
      <point x="651" y="136" type="curve"/>
      <point x="534" y="166" type="line"/>
      <point x="522" y="114"/>
      <point x="500" y="96"/>
      <point x="471" y="96" type="curve" smooth="yes"/>
      <point x="428" y="96"/>
      <point x="396" y="122"/>
      <point x="396" y="250" type="curve" smooth="yes"/>
      <point x="396" y="372"/>
      <point x="427" y="402"/>
      <point x="469" y="402" type="curve" smooth="yes"/>
      <point x="505" y="402"/>
      <point x="535" y="375"/>
      <point x="534" y="252" type="curve"/>
      <point x="596" y="308" type="line"/>
      <point x="331" y="308" type="line"/>
      <point x="331" y="205" type="line"/>
      <point x="655" y="205" type="line"/>
      <point x="655" y="245" type="line" smooth="yes"/>
      <point x="655" y="420"/>
      <point x="587" y="512"/>
      <point x="474" y="512" type="curve" smooth="yes"/>
      <point x="356" y="512"/>
      <point x="293" y="399"/>
    </contour>
  </outline>
</glyph>
<glyph name="icircumflex" format="2">
  <advance width="350"/>
  <unicode hex="00EE"/>
  <outline>
    <contour>
      <point x="108" y="700" type="line"/>
      <point x="-2" y="564" type="line"/>
      <point x="112" y="564" type="line"/>
      <point x="228" y="662" type="line"/>
      <point x="122" y="662" type="line"/>
      <point x="238" y="564" type="line"/>
      <point x="352" y="564" type="line"/>
      <point x="242" y="700" type="line"/>
    </contour>
    <component base="dotlessi"/>
  </outline>
</glyph>
<glyph name="idieresis" format="2">
  <advance width="350"/>
  <unicode hex="00EF"/>
  <outline>
    <contour>
      <point x="9" y="700" type="line"/>
      <point x="9" y="564" type="line"/>
      <point x="149" y="564" type="line"/>
      <point x="149" y="700" type="line"/>
    </contour>
    <contour>
      <point x="201" y="700" type="line"/>
      <point x="201" y="564" type="line"/>
      <point x="341" y="564" type="line"/>
      <point x="341" y="700" type="line"/>
    </contour>
    <component base="dotlessi"/>
  </outline>
</glyph>
<glyph name="Aogonek" format="2">
  <advance width="680"/>
  <unicode hex="0104"/>
  <outline>
    <contour>
      <point x="165" y="272" type="line"/>
      <point x="165" y="150" type="line"/>
      <point x="514" y="150" type="line"/>
      <point x="514" y="272" type="line"/>
    </contour>
    <contour>
      <point x="529" y="-39" type="line"/>
      <point x="662" y="0" type="line"/>
      <point x="420" y="700" type="line"/>
      <point x="264" y="700" type="line"/>
      <point x="19" y="0" type="line"/>
      <point x="164" y="0" type="line"/>
      <point x="383" y="644" type="line"/>
      <point x="300" y="644" type="line"/>
    </contour>
    <contour>
      <point x="592" y="-203" type="curve" smooth="yes"/>
      <point x="615" y="-203"/>
      <point x="650" y="-200"/>
      <point x="675" y="-193" type="curve"/>
      <point x="675" y="-106" type="line"/>
      <point x="655" y="-111"/>
      <point x="639" y="-114"/>
      <point x="621" y="-114" type="curve" smooth="yes"/>
      <point x="591" y="-114"/>
      <point x="576" y="-104"/>
      <point x="576" y="-85" type="curve" smooth="yes"/>
      <point x="576" y="-56"/>
      <point x="610" y="-30"/>
      <point x="662" y="0" type="curve"/>
      <point x="541" y="0" type="line"/>
      <point x="506" y="-23"/>
      <point x="463" y="-62"/>
      <point x="463" y="-116" type="curve" smooth="yes"/>
      <point x="463" y="-170"/>
      <point x="507" y="-203"/>
    </contour>
  </outline>
</glyph>
<glyph name="Hbar" format="2">
  <advance width="680"/>
  <unicode hex="0126"/>
  <outline>
    <contour>
      <point x="5" y="500" type="line"/>
      <point x="675" y="500" type="line"/>
      <point x="675" y="608" type="line"/>
      <point x="5" y="608" type="line"/>
    </contour>
    <contour>
      <point x="130" y="279" type="line"/>
      <point x="551" y="279" type="line"/>
      <point x="551" y="403" type="line"/>
      <point x="130" y="403" type="line"/>
    </contour>
    <contour>
      <point x="462" y="700" type="line"/>
      <point x="462" y="0" type="line"/>
      <point x="613" y="0" type="line"/>
      <point x="613" y="700" type="line"/>
    </contour>
    <contour>
      <point x="67" y="700" type="line"/>
      <point x="67" y="0" type="line"/>
      <point x="218" y="0" type="line"/>
      <point x="218" y="700" type="line"/>
    </contour>
  </outline>
</glyph>
<glyph name="hbar" format="2">
  <advance width="600"/>
  <unicode hex="0127"/>
  <outline>
    <contour>
      <point x="336" y="547" type="line"/>
      <point x="336" y="627" type="line"/>
      <point x="18" y="627" type="line"/>
      <point x="18" y="547" type="line"/>
    </contour>
    <component base="h" xOffset="11" identifier="0C849B31"/>
  </outline>
</glyph>
<glyph name="itilde" format="2">
  <advance width="350"/>
  <unicode hex="0129"/>
  <outline>
    <contour>
      <point x="112" y="694" type="curve" smooth="yes"/>
      <point x="55" y="694"/>
      <point x="18" y="646"/>
      <point x="15" y="564" type="curve"/>
      <point x="105" y="564" type="line"/>
      <point x="107" y="584"/>
      <point x="112" y="598"/>
      <point x="127" y="598" type="curve" smooth="yes"/>
      <point x="149" y="598"/>
      <point x="198" y="569"/>
      <point x="238" y="569" type="curve" smooth="yes"/>
      <point x="295" y="569"/>
      <point x="332" y="617"/>
      <point x="335" y="699" type="curve"/>
      <point x="244" y="699" type="line"/>
      <point x="242" y="679"/>
      <point x="238" y="665"/>
      <point x="223" y="665" type="curve" smooth="yes"/>
      <point x="201" y="665"/>
      <point x="152" y="694"/>
    </contour>
    <component base="dotlessi"/>
  </outline>
</glyph>
<glyph name="dotlessi" format="2">
  <advance width="350"/>
  <unicode hex="0131"/>
  <outline>
    <contour>
      <point x="105" y="500" type="line"/>
      <point x="105" y="393" type="line"/>
      <point x="245" y="393" type="line"/>
      <point x="245" y="500" type="line"/>
    </contour>
    <contour>
      <point x="105" y="107" type="line"/>
      <point x="105" y="0" type="line"/>
      <point x="245" y="0" type="line"/>
      <point x="245" y="107" type="line"/>
    </contour>
    <contour>
      <point x="105" y="500" type="line"/>
      <point x="105" y="0" type="line"/>
      <point x="245" y="0" type="line"/>
      <point x="245" y="500" type="line"/>
    </contour>
  </outline>
</glyph>
<glyph name="IJ" format="2">
  <advance width="680"/>
  <unicode hex="0132"/>
  <outline>
    <contour>
      <point x="374" y="109" type="curve" smooth="yes"/>
      <point x="343" y="109"/>
      <point x="319" y="114"/>
      <point x="296" y="118" type="curve"/>
      <point x="296" y="2" type="line"/>
      <point x="322" y="-5"/>
      <point x="360" y="-12"/>
      <point x="399" y="-12" type="curve" smooth="yes"/>
      <point x="536" y="-12"/>
      <point x="600" y="52"/>
      <point x="600" y="189" type="curve" smooth="yes"/>
      <point x="600" y="700" type="line"/>
      <point x="450" y="700" type="line"/>
      <point x="450" y="177" type="line" smooth="yes"/>
      <point x="450" y="133"/>
      <point x="424" y="109"/>
    </contour>
    <contour>
      <point x="80" y="700" type="line"/>
      <point x="80" y="0" type="line"/>
      <point x="231" y="0" type="line"/>
      <point x="231" y="700" type="line"/>
    </contour>
  </outline>
</glyph>
<glyph name="Lslash" format="2">
  <advance width="600"/>
  <unicode hex="0141"/>
  <outline>
    <contour>
      <point x="21" y="303" type="line"/>
      <point x="21" y="174" type="line"/>
      <point x="420" y="359" type="line"/>
      <point x="420" y="488" type="line"/>
    </contour>
    <component base="L" xOffset="21" identifier="32E93532"/>
  </outline>
</glyph>
<glyph name="Eng" format="2">
  <advance width="680"/>
  <unicode hex="014A"/>
  <outline>
    <contour>
      <point x="571" y="118" type="line"/>
      <point x="256" y="700" type="line"/>
      <point x="58" y="700" type="line"/>
      <point x="58" y="0" type="line"/>
      <point x="201" y="0" type="line"/>
      <point x="201" y="580" type="line"/>
      <point x="168" y="580" type="line"/>
      <point x="483" y="0" type="line"/>
      <point x="622" y="0" type="line"/>
      <point x="622" y="700" type="line"/>
      <point x="479" y="700" type="line"/>
      <point x="479" y="118" type="line"/>
    </contour>
    <contour>
      <point x="395" y="-71" type="curve" smooth="yes"/>
      <point x="369" y="-71"/>
      <point x="347" y="-65"/>
      <point x="330" y="-60" type="curve"/>
      <point x="330" y="-177" type="line"/>
      <point x="358" y="-186"/>
      <point x="396" y="-192"/>
      <point x="431" y="-192" type="curve" smooth="yes"/>
      <point x="556" y="-192"/>
      <point x="622" y="-129"/>
      <point x="622" y="-5" type="curve" smooth="yes"/>
      <point x="622" y="80" type="line"/>
      <point x="475" y="80" type="line"/>
      <point x="475" y="-7" type="line" smooth="yes"/>
      <point x="475" y="-45"/>
      <point x="457" y="-71"/>
    </contour>
  </outline>
</glyph>
<glyph name="OE" format="2">
  <advance width="680"/>
  <unicode hex="0152"/>
  <outline>
    <contour>
      <point x="349" y="700" type="line"/>
      <point x="349" y="0" type="line"/>
      <point x="462" y="0" type="line"/>
      <point x="462" y="700" type="line"/>
    </contour>
    <contour>
      <point x="382" y="576" type="line"/>
      <point x="638" y="576" type="line"/>
      <point x="638" y="700" type="line"/>
      <point x="382" y="700" type="line"/>
    </contour>
    <contour>
      <point x="392" y="294" type="line"/>
      <point x="581" y="294" type="line"/>
      <point x="581" y="417" type="line"/>
      <point x="392" y="417" type="line"/>
    </contour>
    <contour>
      <point x="386" y="0" type="line"/>
      <point x="656" y="0" type="line"/>
      <point x="656" y="124" type="line"/>
      <point x="386" y="124" type="line"/>
    </contour>
    <contour>
      <point x="220" y="712" type="curve" smooth="yes"/>
      <point x="115" y="712"/>
      <point x="20" y="616"/>
      <point x="20" y="350" type="curve" smooth="yes"/>
      <point x="20" y="84"/>
      <point x="115" y="-12"/>
      <point x="220" y="-12" type="curve" smooth="yes"/>
      <point x="343" y="-12"/>
      <point x="394" y="111"/>
      <point x="394" y="350" type="curve" smooth="yes"/>
      <point x="394" y="589"/>
      <point x="343" y="712"/>
    </contour>
    <contour>
      <point x="245" y="112" type="curve" smooth="yes"/>
      <point x="194" y="112"/>
      <point x="151" y="163"/>
      <point x="151" y="350" type="curve" smooth="yes"/>
      <point x="151" y="537"/>
      <point x="194" y="589"/>
      <point x="245" y="589" type="curve" smooth="yes"/>
      <point x="295" y="589"/>
      <point x="339" y="537"/>
      <point x="339" y="350" type="curve" smooth="yes"/>
      <point x="339" y="163"/>
      <point x="295" y="112"/>
    </contour>
  </outline>
</glyph>
<glyph name="oe" format="2">
  <advance width="680"/>
  <unicode hex="0153"/>
  <outline>
    <contour>
      <point x="487" y="-12" type="curve" smooth="yes"/>
      <point x="554" y="-12"/>
      <point x="626" y="34"/>
      <point x="653" y="136" type="curve"/>
      <point x="532" y="166" type="line"/>
      <point x="522" y="114"/>
      <point x="502" y="98"/>
      <point x="472" y="98" type="curve" smooth="yes"/>
      <point x="435" y="98"/>
      <point x="408" y="124"/>
      <point x="408" y="250" type="curve" smooth="yes"/>
      <point x="408" y="370"/>
      <point x="437" y="400"/>
      <point x="474" y="400" type="curve" smooth="yes"/>
      <point x="510" y="400"/>
      <point x="539" y="372"/>
      <point x="537" y="252" type="curve"/>
      <point x="598" y="308" type="line"/>
      <point x="331" y="308" type="line"/>
      <point x="331" y="205" type="line"/>
      <point x="657" y="205" type="line"/>
      <point x="657" y="253" type="line" smooth="yes"/>
      <point x="657" y="428"/>
      <point x="587" y="512"/>
      <point x="483" y="512" type="curve" smooth="yes"/>
      <point x="366" y="512"/>
      <point x="307" y="411"/>
      <point x="307" y="252" type="curve" smooth="yes"/>
      <point x="307" y="77"/>
      <point x="366" y="-12"/>
    </contour>
    <contour>
      <point x="212" y="-12" type="curve" smooth="yes"/>
      <point x="319" y="-12"/>
      <point x="388" y="75"/>
      <point x="388" y="250" type="curve" smooth="yes"/>
      <point x="388" y="425"/>
      <point x="319" y="512"/>
      <point x="212" y="512" type="curve" smooth="yes"/>
      <point x="111" y="512"/>
      <point x="24" y="442"/>
      <point x="24" y="250" type="curve" smooth="yes"/>
      <point x="24" y="58"/>
      <point x="111" y="-12"/>
    </contour>
    <contour>
      <point x="214" y="399" type="curve" smooth="yes"/>
      <point x="254" y="399"/>
      <point x="279" y="361"/>
      <point x="279" y="250" type="curve" smooth="yes"/>
      <point x="279" y="139"/>
      <point x="254" y="99"/>
      <point x="214" y="99" type="curve" smooth="yes"/>
      <point x="173" y="99"/>
      <point x="148" y="139"/>
      <point x="148" y="250" type="curve" smooth="yes"/>
      <point x="148" y="361"/>
      <point x="173" y="399"/>
    </contour>
  </outline>
</glyph>
<glyph name="Uogonek" format="2">
  <advance width="680"/>
  <unicode hex="0172"/>
  <outline>
    <contour>
      <point x="370" y="-203" type="curve" smooth="yes"/>
      <point x="393" y="-203"/>
      <point x="428" y="-200"/>
      <point x="453" y="-193" type="curve"/>
      <point x="453" y="-106" type="line"/>
      <point x="433" y="-111"/>
      <point x="417" y="-114"/>
      <point x="399" y="-114" type="curve" smooth="yes"/>
      <point x="369" y="-114"/>
      <point x="354" y="-104"/>
      <point x="354" y="-85" type="curve" smooth="yes"/>
      <point x="354" y="-56"/>
      <point x="388" y="-25"/>
      <point x="452" y="-1" type="curve" smooth="yes"/>
      <point x="563" y="40"/>
      <point x="624" y="124"/>
      <point x="624" y="247" type="curve" smooth="yes"/>
      <point x="624" y="700" type="line"/>
      <point x="479" y="700" type="line"/>
      <point x="479" y="255" type="line" smooth="yes"/>
      <point x="479" y="171"/>
      <point x="427" y="117"/>
      <point x="341" y="117" type="curve" smooth="yes"/>
      <point x="254" y="117"/>
      <point x="202" y="171"/>
      <point x="202" y="255" type="curve" smooth="yes"/>
      <point x="202" y="700" type="line"/>
      <point x="56" y="700" type="line"/>
      <point x="56" y="247" type="line" smooth="yes"/>
      <point x="56" y="101"/>
      <point x="153" y="-11"/>
      <point x="325" y="-11" type="curve"/>
      <point x="329" y="-11"/>
      <point x="338" y="-12"/>
      <point x="343" y="-12" type="curve"/>
      <point x="316" y="1" type="line"/>
      <point x="259" y="-45"/>
      <point x="241" y="-79"/>
      <point x="241" y="-116" type="curve" smooth="yes"/>
      <point x="241" y="-170"/>
      <point x="285" y="-203"/>
    </contour>
  </outline>
</glyph>
<glyph name="uogonek" format="2">
  <advance width="600"/>
  <unicode hex="0173"/>
  <outline>
    <contour>
      <point x="60" y="166" type="line" smooth="yes"/>
      <point x="60" y="58"/>
      <point x="123" y="-12"/>
      <point x="232" y="-12" type="curve" smooth="yes"/>
      <point x="318" y="-12"/>
      <point x="382" y="41"/>
      <point x="409" y="100" type="curve"/>
      <point x="389" y="98" type="line"/>
      <point x="389" y="-30" type="line"/>
      <point x="529" y="0" type="line"/>
      <point x="529" y="500" type="line"/>
      <point x="389" y="500" type="line"/>
      <point x="389" y="212" type="line" smooth="yes"/>
      <point x="389" y="152"/>
      <point x="351" y="109"/>
      <point x="289" y="109" type="curve" smooth="yes"/>
      <point x="225" y="109"/>
      <point x="200" y="154"/>
      <point x="200" y="205" type="curve" smooth="yes"/>
      <point x="200" y="500" type="line"/>
      <point x="60" y="500" type="line"/>
    </contour>
    <contour>
      <point x="334" y="-118" type="curve" smooth="yes"/>
      <point x="334" y="-171"/>
      <point x="375" y="-203"/>
      <point x="463" y="-203" type="curve" smooth="yes"/>
      <point x="486" y="-203"/>
      <point x="521" y="-198"/>
      <point x="546" y="-188" type="curve"/>
      <point x="540" y="-106" type="line"/>
      <point x="522" y="-111"/>
      <point x="508" y="-114"/>
      <point x="492" y="-114" type="curve" smooth="yes"/>
      <point x="462" y="-114"/>
      <point x="447" y="-104"/>
      <point x="447" y="-85" type="curve" smooth="yes"/>
      <point x="447" y="-61"/>
      <point x="470" y="-37"/>
      <point x="529" y="0" type="curve"/>
      <point x="416" y="0" type="line"/>
      <point x="362" y="-35"/>
      <point x="334" y="-76"/>
    </contour>
  </outline>
</glyph>
<glyph name="Bhook" format="2">
  <advance width="680"/>
  <unicode hex="0181"/>
  <outline>
    <contour>
      <point x="178" y="700" type="line"/>
      <point x="178" y="0" type="line"/>
      <point x="320" y="0" type="line"/>
      <point x="320" y="700" type="line"/>
    </contour>
    <contour>
      <point x="446" y="0" type="line" smooth="yes"/>
      <point x="590" y="0"/>
      <point x="657" y="97"/>
      <point x="657" y="209" type="curve" smooth="yes"/>
      <point x="657" y="304"/>
      <point x="597" y="350"/>
      <point x="538" y="374" type="curve"/>
      <point x="538" y="356" type="line"/>
      <point x="592" y="374"/>
      <point x="642" y="421"/>
      <point x="642" y="514" type="curve" smooth="yes"/>
      <point x="642" y="614"/>
      <point x="579" y="700"/>
      <point x="446" y="700" type="curve" smooth="yes"/>
      <point x="243" y="700" type="line"/>
      <point x="243" y="577" type="line"/>
      <point x="433" y="577" type="line" smooth="yes"/>
      <point x="475" y="577"/>
      <point x="502" y="551"/>
      <point x="502" y="500" type="curve" smooth="yes"/>
      <point x="502" y="448"/>
      <point x="478" y="420"/>
      <point x="437" y="420" type="curve" smooth="yes"/>
      <point x="242" y="420" type="line"/>
      <point x="242" y="298" type="line"/>
      <point x="437" y="298" type="line" smooth="yes"/>
      <point x="478" y="298"/>
      <point x="515" y="272"/>
      <point x="515" y="210" type="curve" smooth="yes"/>
      <point x="515" y="149"/>
      <point x="481" y="123"/>
      <point x="437" y="123" type="curve" smooth="yes"/>
      <point x="243" y="123" type="line"/>
      <point x="243" y="0" type="line"/>
    </contour>
    <contour>
      <point x="264" y="700" type="line"/>
      <point x="180" y="700" type="line" smooth="yes"/>
      <point x="71" y="700"/>
      <point x="3" y="636"/>
      <point x="3" y="525" type="curve" smooth="yes"/>
      <point x="3" y="480"/>
      <point x="14" y="447"/>
      <point x="27" y="424" type="curve"/>
      <point x="154" y="429" type="line"/>
      <point x="139" y="457"/>
      <point x="130" y="484"/>
      <point x="130" y="514" type="curve" smooth="yes"/>
      <point x="130" y="557"/>
      <point x="149" y="577"/>
      <point x="183" y="577" type="curve" smooth="yes"/>
      <point x="267" y="577" type="line"/>
    </contour>
  </outline>
</glyph>
<glyph name="Oopen" format="2">
  <advance width="680"/>
  <unicode hex="0186"/>
  <outline>
    <contour>
      <point x="42" y="484" type="curve"/>
      <point x="189" y="444" type="line"/>
      <point x="214" y="544"/>
      <point x="274" y="584"/>
      <point x="332" y="584" type="curve" smooth="yes"/>
      <point x="425" y="584"/>
      <point x="483" y="501"/>
      <point x="483" y="350" type="curve" smooth="yes"/>
      <point x="483" y="199"/>
      <point x="425" y="116"/>
      <point x="332" y="116" type="curve" smooth="yes"/>
      <point x="274" y="116"/>
      <point x="216" y="156"/>
      <point x="190" y="253" type="curve"/>
      <point x="43" y="214" type="line"/>
      <point x="77" y="82"/>
      <point x="181" y="-12"/>
      <point x="332" y="-12" type="curve" smooth="yes"/>
      <point x="509" y="-12"/>
      <point x="638" y="128"/>
      <point x="638" y="350" type="curve" smooth="yes"/>
      <point x="638" y="572"/>
      <point x="509" y="712"/>
      <point x="328" y="712" type="curve" smooth="yes"/>
      <point x="181" y="712"/>
      <point x="77" y="617"/>
    </contour>
  </outline>
</glyph>
<glyph name="Dhook" format="2">
  <advance width="680"/>
  <unicode hex="018A"/>
  <outline>
    <contour>
      <point x="231" y="123" type="line"/>
      <point x="231" y="0" type="line"/>
      <point x="402" y="0" type="line" smooth="yes"/>
      <point x="557" y="0"/>
      <point x="655" y="144"/>
      <point x="655" y="350" type="curve" smooth="yes"/>
      <point x="655" y="556"/>
      <point x="557" y="700"/>
      <point x="402" y="700" type="curve" smooth="yes"/>
      <point x="231" y="700" type="line"/>
      <point x="231" y="577" type="line"/>
      <point x="393" y="577" type="line" smooth="yes"/>
      <point x="457" y="577"/>
      <point x="510" y="512"/>
      <point x="510" y="350" type="curve" smooth="yes"/>
      <point x="510" y="188"/>
      <point x="457" y="123"/>
      <point x="393" y="123" type="curve" smooth="yes"/>
    </contour>
    <contour>
      <point x="178" y="0" type="line"/>
      <point x="318" y="0" type="line"/>
      <point x="318" y="700" type="line"/>
      <point x="178" y="700" type="line"/>
    </contour>
    <contour>
      <point x="264" y="700" type="line"/>
      <point x="180" y="700" type="line" smooth="yes"/>
      <point x="71" y="700"/>
      <point x="3" y="636"/>
      <point x="3" y="525" type="curve" smooth="yes"/>
      <point x="3" y="480"/>
      <point x="14" y="447"/>
      <point x="27" y="424" type="curve"/>
      <point x="154" y="429" type="line"/>
      <point x="139" y="457"/>
      <point x="130" y="484"/>
      <point x="130" y="514" type="curve" smooth="yes"/>
      <point x="130" y="557"/>
      <point x="149" y="577"/>
      <point x="183" y="577" type="curve" smooth="yes"/>
      <point x="267" y="577" type="line"/>
    </contour>
  </outline>
</glyph>
<glyph name="Schwa" format="2">
  <advance width="680"/>
  <unicode hex="018F"/>
  <outline>
    <contour>
      <point x="338" y="712" type="curve" smooth="yes"/>
      <point x="196" y="712"/>
      <point x="89" y="633"/>
      <point x="48" y="511" type="curve"/>
      <point x="188" y="467" type="line"/>
      <point x="215" y="541"/>
      <point x="264" y="585"/>
      <point x="338" y="585" type="curve" smooth="yes"/>
      <point x="435" y="585"/>
      <point x="497" y="507"/>
      <point x="497" y="350" type="curve" smooth="yes"/>
      <point x="497" y="196"/>
      <point x="438" y="116"/>
      <point x="341" y="116" type="curve" smooth="yes"/>
      <point x="249" y="116"/>
      <point x="189" y="191"/>
      <point x="186" y="327" type="curve"/>
      <point x="154" y="280" type="line"/>
      <point x="564" y="280" type="line"/>
      <point x="564" y="403" type="line"/>
      <point x="33" y="403" type="line"/>
      <point x="33" y="353" type="line" smooth="yes"/>
      <point x="33" y="128"/>
      <point x="169" y="-12"/>
      <point x="337" y="-12" type="curve" smooth="yes"/>
      <point x="520" y="-12"/>
      <point x="649" y="128"/>
      <point x="649" y="350" type="curve" smooth="yes"/>
      <point x="649" y="572"/>
      <point x="519" y="712"/>
    </contour>
  </outline>
</glyph>
<glyph name="Nhookleft" format="2">
  <advance width="680"/>
  <unicode hex="019D"/>
  <outline>
    <contour>
      <point x="546" y="118" type="line"/>
      <point x="256" y="700" type="line"/>
      <point x="58" y="700" type="line"/>
      <point x="58" y="0" type="line"/>
      <point x="201" y="0" type="line"/>
      <point x="201" y="580" type="line"/>
      <point x="166" y="580" type="line"/>
      <point x="456" y="0" type="line"/>
      <point x="622" y="0" type="line"/>
      <point x="622" y="700" type="line"/>
      <point x="479" y="700" type="line"/>
      <point x="479" y="118" type="line"/>
    </contour>
    <contour>
      <point x="-12" y="-77" type="curve" smooth="yes"/>
      <point x="-20" y="-77"/>
      <point x="-33" y="-76"/>
      <point x="-46" y="-71" type="curve"/>
      <point x="-46" y="-183" type="line"/>
      <point x="-25" y="-188"/>
      <point x="-2" y="-192"/>
      <point x="20" y="-192" type="curve" smooth="yes"/>
      <point x="134" y="-192"/>
      <point x="201" y="-136"/>
      <point x="201" y="-25" type="curve" smooth="yes"/>
      <point x="201" y="80" type="line"/>
      <point x="58" y="80" type="line"/>
      <point x="58" y="-13" type="line" smooth="yes"/>
      <point x="58" y="-59"/>
      <point x="25" y="-77"/>
    </contour>
  </outline>
</glyph>
<glyph name="Yhook" format="2">
  <advance width="680"/>
  <unicode hex="01B3"/>
  <outline>
    <contour>
      <point x="623" y="585" type="curve" smooth="yes"/>
      <point x="637" y="585"/>
      <point x="650" y="581"/>
      <point x="666" y="575" type="curve"/>
      <point x="670" y="697" type="line"/>
      <point x="650" y="706"/>
      <point x="625" y="712"/>
      <point x="597" y="712" type="curve" smooth="yes"/>
      <point x="537" y="712"/>
      <point x="493" y="686"/>
      <point x="456" y="623" type="curve" smooth="yes"/>
      <point x="285" y="339" type="line"/>
      <point x="395" y="339" type="line"/>
      <point x="184" y="700" type="line"/>
      <point x="24" y="700" type="line"/>
      <point x="264" y="294" type="line"/>
      <point x="264" y="0" type="line"/>
      <point x="415" y="0" type="line"/>
      <point x="415" y="294" type="line"/>
      <point x="562" y="541" type="line" smooth="yes"/>
      <point x="580" y="572"/>
      <point x="600" y="585"/>
    </contour>
  </outline>
</glyph>
<glyph name="Icaron" format="2">
  <advance width="350"/>
  <unicode hex="01CF"/>
  <outline>
    <contour>
      <point x="-15" y="892" type="line"/>
      <point x="105" y="760" type="line"/>
      <point x="245" y="760" type="line"/>
      <point x="365" y="892" type="line"/>
      <point x="243" y="892" type="line"/>
      <point x="122" y="804" type="line"/>
      <point x="228" y="804" type="line"/>
      <point x="107" y="892" type="line"/>
    </contour>
    <component base="I"/>
  </outline>
</glyph>
<glyph name="Oogonek" format="2">
  <advance width="680"/>
  <unicode hex="01EA"/>
  <outline>
    <contour>
      <point x="356" y="-203" type="curve" smooth="yes"/>
      <point x="379" y="-203"/>
      <point x="414" y="-200"/>
      <point x="439" y="-193" type="curve"/>
      <point x="439" y="-106" type="line"/>
      <point x="419" y="-111"/>
      <point x="403" y="-114"/>
      <point x="385" y="-114" type="curve" smooth="yes"/>
      <point x="355" y="-114"/>
      <point x="340" y="-104"/>
      <point x="340" y="-85" type="curve" smooth="yes"/>
      <point x="340" y="-57"/>
      <point x="374" y="-24"/>
      <point x="434" y="-1" type="curve" smooth="yes"/>
      <point x="564" y="48"/>
      <point x="649" y="173"/>
      <point x="649" y="350" type="curve" smooth="yes"/>
      <point x="649" y="564"/>
      <point x="522" y="712"/>
      <point x="340" y="712" type="curve" smooth="yes"/>
      <point x="158" y="712"/>
      <point x="31" y="564"/>
      <point x="31" y="350" type="curve" smooth="yes"/>
      <point x="31" y="155"/>
      <point x="146" y="-9"/>
      <point x="320" y="-9" type="curve"/>
      <point x="329" y="-9"/>
      <point x="337" y="-9"/>
      <point x="345" y="-9" type="curve"/>
      <point x="304" y="-1" type="line"/>
      <point x="246" y="-40"/>
      <point x="227" y="-80"/>
      <point x="227" y="-116" type="curve" smooth="yes"/>
      <point x="227" y="-170"/>
      <point x="271" y="-203"/>
    </contour>
    <contour>
      <point x="340" y="116" type="curve" smooth="yes"/>
      <point x="249" y="116"/>
      <point x="186" y="199"/>
      <point x="186" y="350" type="curve" smooth="yes"/>
      <point x="186" y="501"/>
      <point x="249" y="584"/>
      <point x="340" y="584" type="curve" smooth="yes"/>
      <point x="431" y="584"/>
      <point x="494" y="501"/>
      <point x="494" y="350" type="curve" smooth="yes"/>
      <point x="494" y="199"/>
      <point x="431" y="116"/>
    </contour>
  </outline>
</glyph>
<glyph name="dotlessj" format="2">
  <advance width="350"/>
  <unicode hex="0237"/>
  <outline>
    <contour>
      <point x="37" y="-183" type="line"/>
      <point x="50" y="-187"/>
      <point x="79" y="-190"/>
      <point x="102" y="-190" type="curve" smooth="yes"/>
      <point x="169" y="-190"/>
      <point x="245" y="-164"/>
      <point x="245" y="-71" type="curve" smooth="yes"/>
      <point x="245" y="500" type="line"/>
      <point x="105" y="500" type="line"/>
      <point x="105" y="-35" type="line" smooth="yes"/>
      <point x="105" y="-68"/>
      <point x="94" y="-81"/>
      <point x="65" y="-81" type="curve" smooth="yes"/>
      <point x="57" y="-81"/>
      <point x="49" y="-80"/>
      <point x="37" y="-79" type="curve"/>
    </contour>
    <contour>
      <point x="105" y="393" type="line"/>
      <point x="245" y="393" type="line"/>
      <point x="245" y="500" type="line"/>
      <point x="105" y="500" type="line"/>
    </contour>
  </outline>
</glyph>
<glyph name="istroke" format="2">
  <advance width="350"/>
  <unicode hex="0268"/>
  <outline>
    <contour>
      <point x="323" y="251" type="line"/>
      <point x="323" y="345" type="line"/>
      <point x="27" y="345" type="line"/>
      <point x="27" y="251" type="line"/>
    </contour>
    <component base="i"/>
  </outline>
</glyph>
<glyph name="ringhalfrightmod" format="2">
  <advance width="350"/>
  <unicode hex="02BE"/>
  <outline>
    <contour>
      <point x="93" y="469" type="line" smooth="yes"/>
      <point x="135" y="469"/>
      <point x="164" y="495"/>
      <point x="164" y="535" type="curve" smooth="yes"/>
      <point x="164" y="575"/>
      <point x="135" y="601"/>
      <point x="93" y="601" type="curve" smooth="yes"/>
      <point x="75" y="601" type="line"/>
      <point x="75" y="700" type="line"/>
      <point x="93" y="700" type="line" smooth="yes"/>
      <point x="212" y="700"/>
      <point x="275" y="630"/>
      <point x="275" y="535" type="curve" smooth="yes"/>
      <point x="275" y="440"/>
      <point x="212" y="370"/>
      <point x="93" y="370" type="curve" smooth="yes"/>
      <point x="75" y="370" type="line"/>
      <point x="75" y="469" type="line"/>
    </contour>
  </outline>
</glyph>
<glyph name="acutecmb" format="2">
  <advance width="600"/>
  <unicode hex="0301"/>
  <outline>
    <contour>
      <point x="273" y="700" type="line"/>
      <point x="406" y="700" type="line"/>
      <point x="318" y="564" type="line"/>
      <point x="213" y="564" type="line"/>
    </contour>
  </outline>
</glyph>
<glyph name="macroncmb" format="2">
  <advance width="600"/>
  <unicode hex="0304"/>
  <outline>
    <contour>
      <point x="145" y="587" type="line"/>
      <point x="455" y="587" type="line"/>
      <point x="455" y="688" type="line"/>
      <point x="145" y="688" type="line"/>
    </contour>
  </outline>
</glyph>
<glyph name="brevecmb" format="2">
  <advance width="600"/>
  <unicode hex="0306"/>
  <outline>
    <contour>
      <point x="145" y="700" type="line"/>
      <point x="145" y="629"/>
      <point x="197" y="559"/>
      <point x="303" y="559" type="curve" smooth="yes"/>
      <point x="409" y="559"/>
      <point x="461" y="629"/>
      <point x="461" y="700" type="curve"/>
      <point x="354" y="700" type="line"/>
      <point x="354" y="670"/>
      <point x="336" y="648"/>
      <point x="303" y="648" type="curve" smooth="yes"/>
      <point x="270" y="648"/>
      <point x="252" y="670"/>
      <point x="252" y="700" type="curve"/>
    </contour>
  </outline>
</glyph>
<glyph name="hungarumlautcmb" format="2">
  <advance width="600"/>
  <unicode hex="030B"/>
  <guideline x="266" y="570" angle="90" name="center" identifier="rUJgZ9vteD"/>
  <outline>
    <contour>
      <point x="181" y="700" type="line"/>
      <point x="132" y="564" type="line"/>
      <point x="239" y="564" type="line"/>
      <point x="310" y="700" type="line"/>
    </contour>
    <contour>
      <point x="341" y="700" type="line"/>
      <point x="292" y="564" type="line"/>
      <point x="399" y="564" type="line"/>
      <point x="470" y="700" type="line"/>
    </contour>
  </outline>
</glyph>
<glyph name="rlinebelow" format="2">
  <advance width="600"/>
  <unicode hex="1E5F"/>
  <outline>
    <contour>
      <point x="17" y="-77" type="line"/>
      <point x="327" y="-77" type="line"/>
      <point x="327" y="-178" type="line"/>
      <point x="17" y="-178" type="line"/>
    </contour>
    <component base="r"/>
  </outline>
</glyph>
<glyph name="Germandbls" format="2">
  <advance width="680"/>
  <unicode hex="1E9E"/>
  <outline>
    <contour>
      <point x="58" y="700" type="line"/>
      <point x="58" y="0" type="line"/>
      <point x="209" y="0" type="line"/>
      <point x="209" y="700" type="line"/>
    </contour>
    <contour>
      <point x="614" y="577" type="line"/>
      <point x="614" y="700" type="line"/>
      <point x="115" y="700" type="line"/>
      <point x="115" y="577" type="line"/>
      <point x="522" y="577" type="line"/>
      <point x="481" y="608" type="line"/>
      <point x="282" y="418" type="line"/>
      <point x="282" y="314" type="line"/>
      <point x="373" y="314" type="line" smooth="yes"/>
      <point x="453" y="314"/>
      <point x="500" y="281"/>
      <point x="500" y="215" type="curve" smooth="yes"/>
      <point x="500" y="144"/>
      <point x="452" y="108"/>
      <point x="369" y="108" type="curve" smooth="yes"/>
      <point x="340" y="108"/>
      <point x="305" y="113"/>
      <point x="272" y="122" type="curve"/>
      <point x="272" y="5" type="line"/>
      <point x="308" y="-6"/>
      <point x="346" y="-12"/>
      <point x="392" y="-12" type="curve" smooth="yes"/>
      <point x="567" y="-12"/>
      <point x="651" y="73"/>
      <point x="651" y="217" type="curve" smooth="yes"/>
      <point x="651" y="347"/>
      <point x="570" y="425"/>
      <point x="405" y="425" type="curve" smooth="yes"/>
      <point x="333" y="425" type="line"/>
      <point x="424" y="404" type="line"/>
    </contour>
  </outline>
</glyph>
<glyph name="dagger" format="2">
  <advance width="350"/>
  <unicode hex="2020"/>
  <outline>
    <contour>
      <point x="119" y="280" type="line"/>
      <point x="231" y="280" type="line"/>
      <point x="231" y="700" type="line"/>
      <point x="119" y="700" type="line"/>
    </contour>
    <contour>
      <point x="20" y="598" type="line"/>
      <point x="20" y="506" type="line"/>
      <point x="330" y="506" type="line"/>
      <point x="330" y="598" type="line"/>
    </contour>
  </outline>
</glyph>
<glyph name="daggerdbl" format="2">
  <advance width="350"/>
  <unicode hex="2021"/>
  <outline>
    <contour>
      <point x="119" y="280" type="line"/>
      <point x="231" y="280" type="line"/>
      <point x="231" y="700" type="line"/>
      <point x="119" y="700" type="line"/>
    </contour>
    <contour>
      <point x="20" y="615" type="line"/>
      <point x="20" y="523" type="line"/>
      <point x="330" y="523" type="line"/>
      <point x="330" y="615" type="line"/>
    </contour>
    <contour>
      <point x="20" y="457" type="line"/>
      <point x="20" y="365" type="line"/>
      <point x="330" y="365" type="line"/>
      <point x="330" y="457" type="line"/>
    </contour>
  </outline>
</glyph>
<glyph name="ellipsis" format="2">
  <advance width="680"/>
  <unicode hex="2026"/>
  <outline>
    <contour>
      <point x="42" y="148" type="line"/>
      <point x="42" y="0" type="line"/>
      <point x="186" y="0" type="line"/>
      <point x="186" y="148" type="line"/>
    </contour>
    <contour>
      <point x="269" y="148" type="line"/>
      <point x="269" y="0" type="line"/>
      <point x="413" y="0" type="line"/>
      <point x="413" y="148" type="line"/>
    </contour>
    <contour>
      <point x="495" y="148" type="line"/>
      <point x="495" y="0" type="line"/>
      <point x="639" y="0" type="line"/>
      <point x="639" y="148" type="line"/>
    </contour>
  </outline>
</glyph>
<glyph name="perthousand" format="2">
  <advance width="680"/>
  <unicode hex="2030"/>
  <outline>
    <contour>
      <point x="45" y="168" type="line"/>
      <point x="635" y="560" type="line"/>
      <point x="635" y="649" type="line"/>
      <point x="45" y="257" type="line"/>
    </contour>
    <contour>
      <point x="26" y="549" type="curve" smooth="yes"/>
      <point x="26" y="446"/>
      <point x="86" y="391"/>
      <point x="159" y="391" type="curve" smooth="yes"/>
      <point x="230" y="391"/>
      <point x="290" y="446"/>
      <point x="290" y="549" type="curve" smooth="yes"/>
      <point x="290" y="650"/>
      <point x="230" y="705"/>
      <point x="159" y="705" type="curve" smooth="yes"/>
      <point x="86" y="705"/>
      <point x="26" y="650"/>
    </contour>
    <contour>
      <point x="116" y="549" type="curve" smooth="yes"/>
      <point x="116" y="600"/>
      <point x="135" y="623"/>
      <point x="159" y="623" type="curve" smooth="yes"/>
      <point x="181" y="623"/>
      <point x="200" y="600"/>
      <point x="200" y="549" type="curve" smooth="yes"/>
      <point x="200" y="496"/>
      <point x="181" y="473"/>
      <point x="159" y="473" type="curve" smooth="yes"/>
      <point x="135" y="473"/>
      <point x="116" y="496"/>
    </contour>
    <contour>
      <point x="159" y="133" type="curve" smooth="yes"/>
      <point x="159" y="43"/>
      <point x="212" y="-5"/>
      <point x="276" y="-5" type="curve" smooth="yes"/>
      <point x="340" y="-5"/>
      <point x="395" y="43"/>
      <point x="395" y="133" type="curve" smooth="yes"/>
      <point x="395" y="223"/>
      <point x="340" y="271"/>
      <point x="276" y="271" type="curve" smooth="yes"/>
      <point x="212" y="271"/>
      <point x="159" y="223"/>
    </contour>
    <contour>
      <point x="247" y="133" type="curve" smooth="yes"/>
      <point x="247" y="176"/>
      <point x="261" y="193"/>
      <point x="276" y="193" type="curve" smooth="yes"/>
      <point x="292" y="193"/>
      <point x="307" y="175"/>
      <point x="307" y="133" type="curve" smooth="yes"/>
      <point x="307" y="91"/>
      <point x="292" y="73"/>
      <point x="276" y="73" type="curve" smooth="yes"/>
      <point x="261" y="73"/>
      <point x="247" y="90"/>
    </contour>
    <contour>
      <point x="418" y="133" type="curve" smooth="yes"/>
      <point x="418" y="43"/>
      <point x="473" y="-5"/>
      <point x="536" y="-5" type="curve" smooth="yes"/>
      <point x="599" y="-5"/>
      <point x="654" y="43"/>
      <point x="654" y="133" type="curve" smooth="yes"/>
      <point x="654" y="223"/>
      <point x="599" y="271"/>
      <point x="536" y="271" type="curve" smooth="yes"/>
      <point x="473" y="271"/>
      <point x="418" y="223"/>
    </contour>
    <contour>
      <point x="506" y="133" type="curve" smooth="yes"/>
      <point x="506" y="175"/>
      <point x="521" y="193"/>
      <point x="536" y="193" type="curve" smooth="yes"/>
      <point x="551" y="193"/>
      <point x="566" y="175"/>
      <point x="566" y="133" type="curve" smooth="yes"/>
      <point x="566" y="91"/>
      <point x="551" y="73"/>
      <point x="536" y="73" type="curve" smooth="yes"/>
      <point x="521" y="73"/>
      <point x="506" y="91"/>
    </contour>
  </outline>
</glyph>
<glyph name="minute" format="2">
  <advance width="350"/>
  <unicode hex="2032"/>
  <outline>
    <contour>
      <point x="123" y="700" type="line"/>
      <point x="67" y="363" type="line"/>
      <point x="175" y="363" type="line"/>
      <point x="283" y="700" type="line"/>
    </contour>
  </outline>
</glyph>
<glyph name="guilsinglright" format="2">
  <advance width="350"/>
  <unicode hex="203A"/>
  <outline>
    <contour>
      <point x="36" y="60" type="line"/>
      <point x="174" y="60" type="line"/>
      <point x="314" y="234" type="line"/>
      <point x="314" y="276" type="line"/>
      <point x="174" y="450" type="line"/>
      <point x="36" y="450" type="line"/>
      <point x="213" y="230" type="line"/>
      <point x="213" y="280" type="line"/>
    </contour>
  </outline>
</glyph>
<glyph name="newsheqel" format="2">
  <advance width="680"/>
  <unicode hex="20AA"/>
  <outline>
    <contour>
      <point x="293" y="700" type="line" smooth="yes"/>
      <point x="413" y="700"/>
      <point x="467" y="645"/>
      <point x="467" y="525" type="curve" smooth="yes"/>
      <point x="467" y="149" type="line"/>
      <point x="360" y="149" type="line"/>
      <point x="360" y="524" type="line" smooth="yes"/>
      <point x="360" y="564"/>
      <point x="339" y="595"/>
      <point x="291" y="595" type="curve" smooth="yes"/>
      <point x="173" y="595" type="line"/>
      <point x="173" y="0" type="line"/>
      <point x="65" y="0" type="line"/>
      <point x="65" y="700" type="line"/>
    </contour>
    <contour>
      <point x="387" y="0" type="line" smooth="yes"/>
      <point x="267" y="0"/>
      <point x="213" y="55"/>
      <point x="213" y="175" type="curve" smooth="yes"/>
      <point x="213" y="551" type="line"/>
      <point x="320" y="551" type="line"/>
      <point x="320" y="176" type="line" smooth="yes"/>
      <point x="320" y="136"/>
      <point x="341" y="105"/>
      <point x="389" y="105" type="curve" smooth="yes"/>
      <point x="507" y="105" type="line"/>
      <point x="507" y="700" type="line"/>
      <point x="616" y="700" type="line"/>
      <point x="616" y="0" type="line"/>
    </contour>
  </outline>
</glyph>
<glyph name="trademark" format="2">
  <advance width="680"/>
  <unicode hex="2122"/>
  <outline>
    <contour>
      <point x="114" y="678" type="line"/>
      <point x="198" y="678" type="line"/>
      <point x="198" y="357" type="line"/>
      <point x="114" y="357" type="line"/>
    </contour>
    <contour>
      <point x="34" y="622" type="line"/>
      <point x="34" y="700" type="line"/>
      <point x="278" y="700" type="line"/>
      <point x="278" y="622" type="line"/>
    </contour>
    <contour>
      <point x="375" y="677" type="line"/>
      <point x="459" y="427" type="line"/>
      <point x="484" y="427" type="line"/>
      <point x="568" y="677" type="line"/>
      <point x="549" y="677" type="line"/>
      <point x="549" y="357" type="line"/>
      <point x="627" y="357" type="line"/>
      <point x="627" y="700" type="line"/>
      <point x="517" y="700" type="line"/>
      <point x="463" y="549" type="line"/>
      <point x="484" y="549" type="line"/>
      <point x="430" y="700" type="line"/>
      <point x="316" y="700" type="line"/>
      <point x="316" y="357" type="line"/>
      <point x="394" y="357" type="line"/>
      <point x="394" y="677" type="line"/>
    </contour>
  </outline>
</glyph>
<glyph name="onetenth" format="2">
  <advance width="680"/>
  <unicode hex="2152"/>
  <outline>
    <contour>
      <point x="326" y="274" type="line"/>
      <point x="326" y="226"/>
      <point x="313" y="211"/>
      <point x="261" y="211" type="curve"/>
      <point x="261" y="153" type="line"/>
      <point x="364" y="153" type="line"/>
      <point x="320" y="205" type="line"/>
      <point x="320" y="0" type="line"/>
      <point x="397" y="0" type="line"/>
      <point x="397" y="274" type="line"/>
    </contour>
    <contour>
      <point x="532" y="277" type="curve" smooth="yes"/>
      <point x="461" y="277"/>
      <point x="417" y="223"/>
      <point x="417" y="135" type="curve" smooth="yes"/>
      <point x="417" y="49"/>
      <point x="461" y="-5"/>
      <point x="532" y="-5" type="curve" smooth="yes"/>
      <point x="602" y="-5"/>
      <point x="648" y="49"/>
      <point x="648" y="135" type="curve" smooth="yes"/>
      <point x="648" y="223"/>
      <point x="602" y="277"/>
    </contour>
    <contour>
      <point x="533" y="59" type="curve" smooth="yes"/>
      <point x="509" y="59"/>
      <point x="495" y="84"/>
      <point x="495" y="135" type="curve" smooth="yes"/>
      <point x="495" y="188"/>
      <point x="509" y="213"/>
      <point x="533" y="213" type="curve" smooth="yes"/>
      <point x="556" y="213"/>
      <point x="570" y="188"/>
      <point x="570" y="135" type="curve" smooth="yes"/>
      <point x="570" y="84"/>
      <point x="556" y="59"/>
    </contour>
    <contour>
      <point x="118" y="700" type="line"/>
      <point x="118" y="646"/>
      <point x="103" y="629"/>
      <point x="43" y="629" type="curve"/>
      <point x="43" y="561" type="line"/>
      <point x="161" y="561" type="line"/>
      <point x="111" y="621" type="line"/>
      <point x="111" y="386" type="line"/>
      <point x="199" y="386" type="line"/>
      <point x="199" y="700" type="line"/>
    </contour>
    <contour>
      <point x="41" y="0" type="line"/>
      <point x="130" y="0" type="line"/>
      <point x="471" y="700" type="line"/>
      <point x="382" y="700" type="line"/>
    </contour>
  </outline>
</glyph>
<glyph name="greaterequal" format="2">
  <advance width="600"/>
  <unicode hex="2265"/>
  <outline>
    <contour>
      <point x="56" y="0" type="line"/>
      <point x="56" y="120" type="line"/>
      <point x="544" y="120" type="line"/>
      <point x="544" y="0" type="line"/>
    </contour>
    <contour>
      <point x="544" y="483" type="line"/>
      <point x="544" y="358" type="line"/>
      <point x="56" y="158" type="line"/>
      <point x="56" y="285" type="line"/>
      <point x="476" y="455" type="line"/>
      <point x="476" y="386" type="line"/>
      <point x="56" y="556" type="line"/>
      <point x="56" y="683" type="line"/>
    </contour>
  </outline>
</glyph>
<glyph name="circlewhite" format="2">
  <advance width="680"/>
  <unicode hex="25CB"/>
  <outline>
    <contour>
      <point x="340" y="34" type="curve" smooth="yes"/>
      <point x="516" y="34"/>
      <point x="652" y="172"/>
      <point x="652" y="350" type="curve" smooth="yes"/>
      <point x="652" y="528"/>
      <point x="516" y="666"/>
      <point x="340" y="666" type="curve" smooth="yes"/>
      <point x="164" y="666"/>
      <point x="28" y="528"/>
      <point x="28" y="350" type="curve" smooth="yes"/>
      <point x="28" y="172"/>
      <point x="164" y="34"/>
    </contour>
    <contour>
      <point x="340" y="117" type="curve" smooth="yes"/>
      <point x="210" y="117"/>
      <point x="117" y="215"/>
      <point x="117" y="350" type="curve" smooth="yes"/>
      <point x="117" y="485"/>
      <point x="210" y="583"/>
      <point x="340" y="583" type="curve" smooth="yes"/>
      <point x="470" y="583"/>
      <point x="563" y="485"/>
      <point x="563" y="350" type="curve" smooth="yes"/>
      <point x="563" y="215"/>
      <point x="470" y="117"/>
    </contour>
  </outline>
</glyph>
<glyph name="onesanscircled" format="2">
  <advance width="680"/>
  <unicode hex="2780"/>
  <outline>
    <contour>
      <point x="314" y="500" type="line"/>
      <point x="314" y="448"/>
      <point x="299" y="432"/>
      <point x="243" y="432" type="curve"/>
      <point x="243" y="368" type="line"/>
      <point x="307" y="368" type="line"/>
      <point x="307" y="200" type="line"/>
      <point x="391" y="200" type="line"/>
      <point x="391" y="500" type="line"/>
    </contour>
    <component base="circlewhite" identifier="18D59438"/>
  </outline>
</glyph>
<glyph name="threesanscircled" format="2">
  <advance width="680"/>
  <unicode hex="2782"/>
  <outline>
    <contour>
      <point x="222" y="306" type="line"/>
      <point x="217" y="232"/>
      <point x="270" y="196"/>
      <point x="341" y="196" type="curve" smooth="yes"/>
      <point x="417" y="196"/>
      <point x="457" y="235"/>
      <point x="457" y="288" type="curve" smooth="yes"/>
      <point x="457" y="326"/>
      <point x="437" y="347"/>
      <point x="406" y="357" type="curve"/>
      <point x="428" y="365"/>
      <point x="449" y="383"/>
      <point x="449" y="418" type="curve" smooth="yes"/>
      <point x="449" y="462"/>
      <point x="418" y="504"/>
      <point x="340" y="504" type="curve" smooth="yes"/>
      <point x="269" y="504"/>
      <point x="219" y="466"/>
      <point x="224" y="396" type="curve"/>
      <point x="310" y="401" type="line"/>
      <point x="307" y="423"/>
      <point x="317" y="440"/>
      <point x="337" y="440" type="curve" smooth="yes"/>
      <point x="350" y="440"/>
      <point x="364" y="431"/>
      <point x="364" y="412" type="curve" smooth="yes"/>
      <point x="364" y="395"/>
      <point x="353" y="385"/>
      <point x="341" y="385" type="curve" smooth="yes"/>
      <point x="322" y="385" type="line"/>
      <point x="322" y="324" type="line"/>
      <point x="341" y="324" type="line" smooth="yes"/>
      <point x="359" y="324"/>
      <point x="372" y="315"/>
      <point x="372" y="294" type="curve" smooth="yes"/>
      <point x="372" y="272"/>
      <point x="360" y="261"/>
      <point x="341" y="261" type="curve" smooth="yes"/>
      <point x="316" y="261"/>
      <point x="303" y="277"/>
      <point x="306" y="300" type="curve"/>
    </contour>
    <component base="circlewhite" identifier="66FDB61E"/>
  </outline>
</glyph>
<glyph name="foursanscircled" format="2">
  <advance width="680"/>
  <unicode hex="2783"/>
  <outline>
    <contour>
      <point x="408" y="499" type="line"/>
      <point x="303" y="499" type="line"/>
      <point x="209" y="322" type="line"/>
      <point x="209" y="252" type="line"/>
      <point x="331" y="252" type="line"/>
      <point x="331" y="199" type="line"/>
      <point x="408" y="199" type="line"/>
      <point x="408" y="252" type="line"/>
      <point x="451" y="252" type="line"/>
      <point x="451" y="319" type="line"/>
      <point x="408" y="319" type="line"/>
    </contour>
    <contour>
      <point x="276" y="319" type="line"/>
      <point x="331" y="425" type="line"/>
      <point x="331" y="319" type="line"/>
    </contour>
    <component base="circlewhite" identifier="F805CD11"/>
  </outline>
</glyph>
<glyph name="fivesanscircled" format="2">
  <advance width="680"/>
  <unicode hex="2784"/>
  <outline>
    <contour>
      <point x="223" y="306" type="line"/>
      <point x="226" y="232"/>
      <point x="268" y="195"/>
      <point x="339" y="195" type="curve" smooth="yes"/>
      <point x="413" y="195"/>
      <point x="450" y="239"/>
      <point x="450" y="305" type="curve" smooth="yes"/>
      <point x="450" y="361"/>
      <point x="421" y="404"/>
      <point x="362" y="404" type="curve" smooth="yes"/>
      <point x="342" y="404"/>
      <point x="325" y="398"/>
      <point x="313" y="389" type="curve"/>
      <point x="318" y="429" type="line"/>
      <point x="441" y="429" type="line"/>
      <point x="441" y="499" type="line"/>
      <point x="249" y="499" type="line"/>
      <point x="230" y="328" type="line"/>
      <point x="311" y="323" type="line"/>
      <point x="315" y="332"/>
      <point x="325" y="341"/>
      <point x="338" y="341" type="curve" smooth="yes"/>
      <point x="356" y="341"/>
      <point x="365" y="325"/>
      <point x="365" y="302" type="curve" smooth="yes"/>
      <point x="365" y="279"/>
      <point x="357" y="260"/>
      <point x="338" y="260" type="curve" smooth="yes"/>
      <point x="320" y="260"/>
      <point x="312" y="274"/>
      <point x="311" y="295" type="curve"/>
    </contour>
    <component base="circlewhite" identifier="E993C0D4"/>
  </outline>
</glyph>
<glyph name="ninesanscircled" format="2">
  <advance width="680"/>
  <unicode hex="2788"/>
  <outline>
    <contour>
      <point x="341" y="504" type="curve" smooth="yes"/>
      <point x="261" y="504"/>
      <point x="223" y="459"/>
      <point x="223" y="397" type="curve" smooth="yes"/>
      <point x="223" y="336"/>
      <point x="261" y="303"/>
      <point x="314" y="303" type="curve" smooth="yes"/>
      <point x="342" y="303"/>
      <point x="363" y="311"/>
      <point x="378" y="325" type="curve"/>
      <point x="375" y="288"/>
      <point x="365" y="257"/>
      <point x="341" y="257" type="curve" smooth="yes"/>
      <point x="324" y="257"/>
      <point x="314" y="269"/>
      <point x="314" y="288" type="curve"/>
      <point x="224" y="299" type="line"/>
      <point x="227" y="233"/>
      <point x="273" y="196"/>
      <point x="338" y="196" type="curve" smooth="yes"/>
      <point x="426" y="196"/>
      <point x="463" y="252"/>
      <point x="463" y="356" type="curve" smooth="yes"/>
      <point x="463" y="405"/>
      <point x="456" y="433"/>
      <point x="438" y="460" type="curve" smooth="yes"/>
      <point x="420" y="486"/>
      <point x="387" y="504"/>
    </contour>
    <contour>
      <point x="341" y="360" type="curve" smooth="yes"/>
      <point x="321" y="360"/>
      <point x="307" y="377"/>
      <point x="307" y="401" type="curve" smooth="yes"/>
      <point x="307" y="425"/>
      <point x="321" y="442"/>
      <point x="341" y="442" type="curve" smooth="yes"/>
      <point x="362" y="442"/>
      <point x="376" y="425"/>
      <point x="376" y="401" type="curve" smooth="yes"/>
      <point x="376" y="377"/>
      <point x="362" y="360"/>
    </contour>
    <component base="circlewhite" identifier="C26BFA4A"/>
  </outline>
</glyph>
<glyph name="tensanscircled" format="2">
  <advance width="680"/>
  <unicode hex="2789"/>
  <outline>
    <contour>
      <point x="229" y="499" type="line"/>
      <point x="229" y="457"/>
      <point x="220" y="441"/>
      <point x="183" y="441" type="curve"/>
      <point x="183" y="377" type="line"/>
      <point x="225" y="377" type="line"/>
      <point x="225" y="199" type="line"/>
      <point x="294" y="199" type="line"/>
      <point x="294" y="499" type="line"/>
    </contour>
    <contour>
      <point x="402" y="504" type="curve" smooth="yes"/>
      <point x="352" y="504"/>
      <point x="314" y="465"/>
      <point x="314" y="350" type="curve" smooth="yes"/>
      <point x="314" y="235"/>
      <point x="352" y="196"/>
      <point x="402" y="196" type="curve" smooth="yes"/>
      <point x="452" y="196"/>
      <point x="490" y="235"/>
      <point x="490" y="350" type="curve" smooth="yes"/>
      <point x="490" y="465"/>
      <point x="452" y="504"/>
    </contour>
    <contour>
      <point x="402" y="264" type="curve" smooth="yes"/>
      <point x="391" y="264"/>
      <point x="385" y="274"/>
      <point x="385" y="350" type="curve" smooth="yes"/>
      <point x="385" y="426"/>
      <point x="391" y="436"/>
      <point x="402" y="436" type="curve" smooth="yes"/>
      <point x="413" y="436"/>
      <point x="419" y="426"/>
      <point x="419" y="350" type="curve" smooth="yes"/>
      <point x="419" y="274"/>
      <point x="413" y="264"/>
    </contour>
    <component base="circlewhite" identifier="7E1F7121"/>
  </outline>
</glyph>
<glyph name="onesansnegativecircled" format="2">
  <advance width="680"/>
  <unicode hex="278A"/>
  <outline>
    <contour>
      <point x="314" y="500" type="curve"/>
      <point x="391" y="500" type="line"/>
      <point x="391" y="200" type="line"/>
      <point x="307" y="200" type="line"/>
      <point x="307" y="368" type="line"/>
      <point x="243" y="368" type="line"/>
      <point x="243" y="432" type="line"/>
      <point x="299" y="432"/>
      <point x="314" y="448"/>
    </contour>
    <component base="circleblack" identifier="24358F2B"/>
  </outline>
</glyph>
<glyph name="twosansnegativecircled" format="2">
  <advance width="680"/>
  <unicode hex="278B"/>
  <outline>
    <contour>
      <point x="448" y="200" type="line"/>
      <point x="234" y="200" type="line"/>
      <point x="234" y="268" type="line"/>
      <point x="330" y="349"/>
      <point x="362" y="373"/>
      <point x="362" y="405" type="curve" smooth="yes"/>
      <point x="362" y="430"/>
      <point x="353" y="438"/>
      <point x="338" y="438" type="curve" smooth="yes"/>
      <point x="323" y="438"/>
      <point x="313" y="429"/>
      <point x="313" y="405" type="curve" smooth="yes"/>
      <point x="313" y="398"/>
      <point x="314" y="389"/>
      <point x="320" y="379" type="curve"/>
      <point x="242" y="369" type="line"/>
      <point x="233" y="384"/>
      <point x="230" y="396"/>
      <point x="230" y="410" type="curve" smooth="yes"/>
      <point x="230" y="456"/>
      <point x="263" y="504"/>
      <point x="340" y="504" type="curve" smooth="yes"/>
      <point x="421" y="504"/>
      <point x="448" y="451"/>
      <point x="448" y="406" type="curve" smooth="yes"/>
      <point x="448" y="355"/>
      <point x="407" y="318"/>
      <point x="345" y="270" type="curve"/>
      <point x="448" y="270" type="line"/>
    </contour>
    <component base="circleblack" identifier="37ACD633"/>
  </outline>
</glyph>
<glyph name="threesansnegativecircled" format="2">
  <advance width="680"/>
  <unicode hex="278C"/>
  <outline>
    <contour>
      <point x="222" y="306" type="curve"/>
      <point x="306" y="300" type="line"/>
      <point x="303" y="277"/>
      <point x="316" y="261"/>
      <point x="341" y="261" type="curve" smooth="yes"/>
      <point x="360" y="261"/>
      <point x="372" y="272"/>
      <point x="372" y="294" type="curve" smooth="yes"/>
      <point x="372" y="315"/>
      <point x="359" y="324"/>
      <point x="341" y="324" type="curve" smooth="yes"/>
      <point x="322" y="324" type="line"/>
      <point x="322" y="385" type="line"/>
      <point x="341" y="385" type="line" smooth="yes"/>
      <point x="353" y="385"/>
      <point x="364" y="395"/>
      <point x="364" y="412" type="curve" smooth="yes"/>
      <point x="364" y="431"/>
      <point x="350" y="440"/>
      <point x="337" y="440" type="curve" smooth="yes"/>
      <point x="317" y="440"/>
      <point x="307" y="423"/>
      <point x="310" y="401" type="curve"/>
      <point x="224" y="396" type="line"/>
      <point x="219" y="466"/>
      <point x="269" y="504"/>
      <point x="340" y="504" type="curve" smooth="yes"/>
      <point x="418" y="504"/>
      <point x="449" y="462"/>
      <point x="449" y="418" type="curve" smooth="yes"/>
      <point x="449" y="383"/>
      <point x="428" y="365"/>
      <point x="406" y="357" type="curve"/>
      <point x="437" y="347"/>
      <point x="457" y="326"/>
      <point x="457" y="288" type="curve" smooth="yes"/>
      <point x="457" y="235"/>
      <point x="417" y="196"/>
      <point x="341" y="196" type="curve" smooth="yes"/>
      <point x="270" y="196"/>
      <point x="217" y="232"/>
    </contour>
    <component base="circleblack" identifier="8F36B019"/>
  </outline>
</glyph>
<glyph name="foursansnegativecircled" format="2">
  <advance width="680"/>
  <unicode hex="278D"/>
  <outline>
    <contour>
      <point x="408" y="499" type="line"/>
      <point x="408" y="319" type="line"/>
      <point x="451" y="319" type="line"/>
      <point x="451" y="252" type="line"/>
      <point x="408" y="252" type="line"/>
      <point x="408" y="199" type="line"/>
      <point x="331" y="199" type="line"/>
      <point x="331" y="252" type="line"/>
      <point x="209" y="252" type="line"/>
      <point x="209" y="322" type="line"/>
      <point x="303" y="499" type="line"/>
    </contour>
    <contour>
      <point x="276" y="319" type="line"/>
      <point x="331" y="319" type="line"/>
      <point x="331" y="425" type="line"/>
    </contour>
    <component base="circleblack" identifier="E994FE88"/>
  </outline>
</glyph>
<glyph name="fivesansnegativecircled" format="2">
  <advance width="680"/>
  <unicode hex="278E"/>
  <outline>
    <contour>
      <point x="223" y="306" type="curve"/>
      <point x="311" y="295" type="line"/>
      <point x="312" y="274"/>
      <point x="320" y="260"/>
      <point x="338" y="260" type="curve" smooth="yes"/>
      <point x="357" y="260"/>
      <point x="365" y="279"/>
      <point x="365" y="302" type="curve" smooth="yes"/>
      <point x="365" y="325"/>
      <point x="356" y="341"/>
      <point x="338" y="341" type="curve" smooth="yes"/>
      <point x="325" y="341"/>
      <point x="315" y="332"/>
      <point x="311" y="323" type="curve"/>
      <point x="230" y="328" type="line"/>
      <point x="249" y="499" type="line"/>
      <point x="441" y="499" type="line"/>
      <point x="441" y="429" type="line"/>
      <point x="318" y="429" type="line"/>
      <point x="313" y="389" type="line"/>
      <point x="325" y="398"/>
      <point x="342" y="404"/>
      <point x="362" y="404" type="curve" smooth="yes"/>
      <point x="421" y="404"/>
      <point x="450" y="361"/>
      <point x="450" y="305" type="curve" smooth="yes"/>
      <point x="450" y="239"/>
      <point x="413" y="195"/>
      <point x="339" y="195" type="curve" smooth="yes"/>
      <point x="268" y="195"/>
      <point x="226" y="232"/>
    </contour>
    <component base="circleblack" identifier="37222D17"/>
  </outline>
</glyph>
<glyph name="sixsansnegativecircled" format="2">
  <advance width="680"/>
  <unicode hex="278F"/>
  <outline>
    <contour>
      <point x="337" y="196" type="curve" smooth="yes"/>
      <point x="288" y="196"/>
      <point x="258" y="214"/>
      <point x="238" y="244" type="curve" smooth="yes"/>
      <point x="222" y="266"/>
      <point x="214" y="299"/>
      <point x="214" y="342" type="curve" smooth="yes"/>
      <point x="214" y="441"/>
      <point x="266" y="504"/>
      <point x="348" y="504" type="curve" smooth="yes"/>
      <point x="411" y="504"/>
      <point x="448" y="467"/>
      <point x="451" y="406" type="curve"/>
      <point x="367" y="415" type="line"/>
      <point x="366" y="431"/>
      <point x="358" y="437"/>
      <point x="345" y="437" type="curve" smooth="yes"/>
      <point x="324" y="437"/>
      <point x="305" y="420"/>
      <point x="300" y="377" type="curve"/>
      <point x="315" y="392"/>
      <point x="337" y="400"/>
      <point x="363" y="400" type="curve" smooth="yes"/>
      <point x="420" y="400"/>
      <point x="456" y="361"/>
      <point x="456" y="300" type="curve" smooth="yes"/>
      <point x="456" y="245"/>
      <point x="417" y="196"/>
    </contour>
    <contour>
      <point x="337" y="257" type="curve" smooth="yes"/>
      <point x="358" y="257"/>
      <point x="371" y="274"/>
      <point x="371" y="299" type="curve" smooth="yes"/>
      <point x="371" y="324"/>
      <point x="358" y="342"/>
      <point x="337" y="342" type="curve" smooth="yes"/>
      <point x="316" y="342"/>
      <point x="303" y="324"/>
      <point x="303" y="299" type="curve" smooth="yes"/>
      <point x="303" y="274"/>
      <point x="316" y="257"/>
    </contour>
    <component base="circleblack" identifier="3EFFAC1A"/>
  </outline>
</glyph>
<glyph name="sevensansnegativecircled" format="2">
  <advance width="680"/>
  <unicode hex="2790"/>
  <outline>
    <contour>
      <point x="222" y="499" type="line"/>
      <point x="460" y="499" type="line"/>
      <point x="460" y="449" type="line"/>
      <point x="411" y="369"/>
      <point x="381" y="299"/>
      <point x="375" y="199" type="curve"/>
      <point x="289" y="199" type="line"/>
      <point x="292" y="289"/>
      <point x="326" y="358"/>
      <point x="373" y="431" type="curve"/>
      <point x="300" y="431" type="line"/>
      <point x="300" y="376" type="line"/>
      <point x="222" y="376" type="line"/>
    </contour>
    <component base="circleblack" identifier="BE320DD7"/>
  </outline>
</glyph>
<glyph name="eightsansnegativecircled" format="2">
  <advance width="680"/>
  <unicode hex="2791"/>
  <outline>
    <contour>
      <point x="217" y="288" type="curve" smooth="yes"/>
      <point x="217" y="326"/>
      <point x="241" y="349"/>
      <point x="272" y="360" type="curve"/>
      <point x="247" y="369"/>
      <point x="227" y="389"/>
      <point x="227" y="421" type="curve" smooth="yes"/>
      <point x="227" y="468"/>
      <point x="266" y="504"/>
      <point x="341" y="504" type="curve" smooth="yes"/>
      <point x="415" y="504"/>
      <point x="454" y="468"/>
      <point x="454" y="421" type="curve" smooth="yes"/>
      <point x="454" y="389"/>
      <point x="434" y="369"/>
      <point x="409" y="360" type="curve"/>
      <point x="440" y="349"/>
      <point x="464" y="326"/>
      <point x="464" y="288" type="curve" smooth="yes"/>
      <point x="464" y="235"/>
      <point x="419" y="196"/>
      <point x="341" y="196" type="curve" smooth="yes"/>
      <point x="262" y="196"/>
      <point x="217" y="235"/>
    </contour>
    <contour>
      <point x="341" y="388" type="curve" smooth="yes"/>
      <point x="361" y="388"/>
      <point x="373" y="400"/>
      <point x="373" y="416" type="curve" smooth="yes"/>
      <point x="373" y="432"/>
      <point x="361" y="445"/>
      <point x="341" y="445" type="curve" smooth="yes"/>
      <point x="320" y="445"/>
      <point x="307" y="432"/>
      <point x="307" y="416" type="curve" smooth="yes"/>
      <point x="307" y="400"/>
      <point x="320" y="388"/>
    </contour>
    <contour>
      <point x="341" y="330" type="curve" smooth="yes"/>
      <point x="316" y="330"/>
      <point x="300" y="315"/>
      <point x="300" y="293" type="curve" smooth="yes"/>
      <point x="300" y="271"/>
      <point x="316" y="255"/>
      <point x="341" y="255" type="curve" smooth="yes"/>
      <point x="365" y="255"/>
      <point x="381" y="271"/>
      <point x="381" y="293" type="curve" smooth="yes"/>
      <point x="381" y="315"/>
      <point x="365" y="330"/>
    </contour>
    <component base="circleblack" identifier="5ABE17BE"/>
  </outline>
</glyph>
<glyph name="tensansnegativecircled" format="2">
  <advance width="680"/>
  <unicode hex="2793"/>
  <outline>
    <contour>
      <point x="402" y="504" type="curve" smooth="yes"/>
      <point x="452" y="504"/>
      <point x="490" y="465"/>
      <point x="490" y="350" type="curve" smooth="yes"/>
      <point x="490" y="235"/>
      <point x="452" y="196"/>
      <point x="402" y="196" type="curve" smooth="yes"/>
      <point x="352" y="196"/>
      <point x="314" y="235"/>
      <point x="314" y="350" type="curve" smooth="yes"/>
      <point x="314" y="465"/>
      <point x="352" y="504"/>
    </contour>
    <contour>
      <point x="402" y="264" type="curve" smooth="yes"/>
      <point x="413" y="264"/>
      <point x="419" y="274"/>
      <point x="419" y="350" type="curve" smooth="yes"/>
      <point x="419" y="426"/>
      <point x="413" y="436"/>
      <point x="402" y="436" type="curve" smooth="yes"/>
      <point x="391" y="436"/>
      <point x="385" y="426"/>
      <point x="385" y="350" type="curve" smooth="yes"/>
      <point x="385" y="274"/>
      <point x="391" y="264"/>
    </contour>
    <contour>
      <point x="229" y="499" type="curve"/>
      <point x="294" y="499" type="line"/>
      <point x="294" y="199" type="line"/>
      <point x="225" y="199" type="line"/>
      <point x="225" y="377" type="line"/>
      <point x="183" y="377" type="line"/>
      <point x="183" y="441" type="line"/>
      <point x="220" y="441"/>
      <point x="229" y="457"/>
    </contour>
    <component base="circleblack" identifier="9A8DB9A3"/>
  </outline>
</glyph>
<glyph name="a.alt1" format="2">
  <advance width="600"/>
  <guideline x="266" y="502" angle="90" name="center" identifier="IHHIkvgEHa"/>
  <outline>
    <contour>
      <point x="53" y="147" type="curve" smooth="yes"/>
      <point x="53" y="50"/>
      <point x="124" y="-12"/>
      <point x="232" y="-12" type="curve" smooth="yes"/>
      <point x="331" y="-12"/>
      <point x="395" y="22"/>
      <point x="429" y="101" type="curve"/>
      <point x="396" y="100" type="line"/>
      <point x="396" y="65"/>
      <point x="397" y="32"/>
      <point x="402" y="0" type="curve"/>
      <point x="530" y="0" type="line"/>
      <point x="524" y="36"/>
      <point x="522" y="67"/>
      <point x="522" y="114" type="curve" smooth="yes"/>
      <point x="522" y="343" type="line" smooth="yes"/>
      <point x="522" y="451"/>
      <point x="446" y="512"/>
      <point x="299" y="512" type="curve" smooth="yes"/>
      <point x="142" y="512"/>
      <point x="80" y="431"/>
      <point x="73" y="349" type="curve"/>
      <point x="211" y="325" type="line"/>
      <point x="212" y="376"/>
      <point x="241" y="405"/>
      <point x="300" y="405" type="curve" smooth="yes"/>
      <point x="362" y="405"/>
      <point x="385" y="379"/>
      <point x="385" y="333" type="curve" smooth="yes"/>
      <point x="385" y="187" type="line" smooth="yes"/>
      <point x="385" y="129"/>
      <point x="340" y="91"/>
      <point x="265" y="91" type="curve" smooth="yes"/>
      <point x="218" y="91"/>
      <point x="192" y="114"/>
      <point x="192" y="147" type="curve" smooth="yes"/>
      <point x="192" y="183"/>
      <point x="222" y="201"/>
      <point x="266" y="206" type="curve" smooth="yes"/>
      <point x="455" y="228" type="line"/>
      <point x="455" y="322" type="line"/>
      <point x="208" y="294" type="line" smooth="yes"/>
      <point x="123" y="284"/>
      <point x="53" y="238"/>
    </contour>
  </outline>
</glyph>
<glyph name="acutecmb.uc" format="2">
  <advance width="600"/>
  <outline>
    <contour>
      <point x="287" y="892" type="line"/>
      <point x="428" y="892" type="line"/>
      <point x="319" y="760" type="line"/>
      <point x="209" y="760" type="line"/>
    </contour>
  </outline>
</glyph>
<glyph name="aogonek.alt1" format="2">
  <advance width="600"/>
  <outline>
    <contour>
      <point x="464" y="-203" type="curve" smooth="yes"/>
      <point x="487" y="-203"/>
      <point x="522" y="-198"/>
      <point x="547" y="-188" type="curve"/>
      <point x="541" y="-106" type="line"/>
      <point x="523" y="-111"/>
      <point x="509" y="-114"/>
      <point x="493" y="-114" type="curve" smooth="yes"/>
      <point x="463" y="-114"/>
      <point x="448" y="-104"/>
      <point x="448" y="-85" type="curve" smooth="yes"/>
      <point x="448" y="-61"/>
      <point x="471" y="-37"/>
      <point x="530" y="0" type="curve"/>
      <point x="417" y="0" type="line"/>
      <point x="363" y="-35"/>
      <point x="335" y="-76"/>
      <point x="335" y="-118" type="curve" smooth="yes"/>
      <point x="335" y="-171"/>
      <point x="376" y="-203"/>
    </contour>
    <contour>
      <point x="396" y="100" type="line"/>
      <point x="396" y="55"/>
      <point x="398" y="14"/>
      <point x="407" y="-26" type="curve"/>
      <point x="530" y="0" type="line"/>
      <point x="524" y="36"/>
      <point x="522" y="67"/>
      <point x="522" y="114" type="curve" smooth="yes"/>
      <point x="522" y="343" type="line" smooth="yes"/>
      <point x="522" y="451"/>
      <point x="446" y="512"/>
      <point x="299" y="512" type="curve" smooth="yes"/>
      <point x="142" y="512"/>
      <point x="80" y="431"/>
      <point x="73" y="349" type="curve"/>
      <point x="211" y="325" type="line"/>
      <point x="212" y="376"/>
      <point x="241" y="405"/>
      <point x="300" y="405" type="curve" smooth="yes"/>
      <point x="362" y="405"/>
      <point x="385" y="379"/>
      <point x="385" y="333" type="curve" smooth="yes"/>
      <point x="385" y="187" type="line" smooth="yes"/>
      <point x="385" y="129"/>
      <point x="340" y="91"/>
      <point x="265" y="91" type="curve" smooth="yes"/>
      <point x="218" y="91"/>
      <point x="192" y="114"/>
      <point x="192" y="147" type="curve" smooth="yes"/>
      <point x="192" y="183"/>
      <point x="222" y="201"/>
      <point x="266" y="206" type="curve" smooth="yes"/>
      <point x="455" y="228" type="line"/>
      <point x="455" y="322" type="line"/>
      <point x="208" y="294" type="line" smooth="yes"/>
      <point x="123" y="284"/>
      <point x="53" y="238"/>
      <point x="53" y="147" type="curve" smooth="yes"/>
      <point x="53" y="50"/>
      <point x="124" y="-12"/>
      <point x="232" y="-12" type="curve" smooth="yes"/>
      <point x="331" y="-12"/>
      <point x="395" y="22"/>
      <point x="429" y="101" type="curve"/>
    </contour>
  </outline>
</glyph>
<glyph name="caroncmb.alt" format="2">
  <advance width="600"/>
  <outline>
    <contour>
      <point x="260" y="700" type="line"/>
      <point x="252" y="540" type="line"/>
      <point x="356" y="540" type="line"/>
      <point x="384" y="700" type="line"/>
    </contour>
  </outline>
</glyph>
<glyph name="dieresiscmb.uc" format="2">
  <advance width="600"/>
  <outline>
    <contour>
      <point x="120" y="899" type="line"/>
      <point x="120" y="760" type="line"/>
      <point x="269" y="760" type="line"/>
      <point x="269" y="899" type="line"/>
    </contour>
    <contour>
      <point x="331" y="899" type="line"/>
      <point x="331" y="760" type="line"/>
      <point x="480" y="760" type="line"/>
      <point x="480" y="899" type="line"/>
    </contour>
  </outline>
</glyph>
<glyph name="dotbelowcmb.uc" format="2">
  <advance width="600"/>
  <outline>
    <contour>
      <point x="225" y="-64" type="line"/>
      <point x="225" y="-203" type="line"/>
      <point x="375" y="-203" type="line"/>
      <point x="375" y="-64" type="line"/>
    </contour>
  </outline>
</glyph>
<glyph name="eight.sub" format="2">
  <advance width="350"/>
  <outline>
    <contour>
      <point x="176" y="167" type="curve" smooth="yes"/>
      <point x="153" y="167"/>
      <point x="139" y="180"/>
      <point x="139" y="198" type="curve" smooth="yes"/>
      <point x="139" y="216"/>
      <point x="153" y="230"/>
      <point x="176" y="230" type="curve" smooth="yes"/>
      <point x="199" y="230"/>
      <point x="212" y="216"/>
      <point x="212" y="198" type="curve" smooth="yes"/>
      <point x="212" y="180"/>
      <point x="199" y="167"/>
    </contour>
    <contour>
      <point x="117" y="131" type="curve"/>
      <point x="117" y="140" type="line"/>
      <point x="74" y="131"/>
      <point x="39" y="104"/>
      <point x="39" y="55" type="curve" smooth="yes"/>
      <point x="39" y="-3"/>
      <point x="89" y="-47"/>
      <point x="176" y="-47" type="curve" smooth="yes"/>
      <point x="263" y="-47"/>
      <point x="313" y="-3"/>
      <point x="313" y="55" type="curve" smooth="yes"/>
      <point x="313" y="104"/>
      <point x="278" y="131"/>
      <point x="235" y="140" type="curve"/>
      <point x="235" y="131" type="line"/>
      <point x="271" y="138"/>
      <point x="302" y="161"/>
      <point x="302" y="203" type="curve" smooth="yes"/>
      <point x="302" y="255"/>
      <point x="259" y="296"/>
      <point x="176" y="296" type="curve" smooth="yes"/>
      <point x="93" y="296"/>
      <point x="50" y="255"/>
      <point x="50" y="203" type="curve" smooth="yes"/>
      <point x="50" y="161"/>
      <point x="81" y="138"/>
    </contour>
    <contour>
      <point x="176" y="102" type="curve" smooth="yes"/>
      <point x="203" y="102"/>
      <point x="221" y="86"/>
      <point x="221" y="61" type="curve" smooth="yes"/>
      <point x="221" y="37"/>
      <point x="203" y="19"/>
      <point x="176" y="19" type="curve" smooth="yes"/>
      <point x="149" y="19"/>
      <point x="131" y="37"/>
      <point x="131" y="61" type="curve" smooth="yes"/>
      <point x="131" y="86"/>
      <point x="149" y="102"/>
    </contour>
  </outline>
</glyph>
<glyph name="eight.sup" format="2">
  <advance width="350"/>
  <outline>
    <contour>
      <point x="176" y="677" type="curve" smooth="yes"/>
      <point x="153" y="677"/>
      <point x="139" y="690"/>
      <point x="139" y="708" type="curve" smooth="yes"/>
      <point x="139" y="726"/>
      <point x="153" y="740"/>
      <point x="176" y="740" type="curve" smooth="yes"/>
      <point x="199" y="740"/>
      <point x="212" y="726"/>
      <point x="212" y="708" type="curve" smooth="yes"/>
      <point x="212" y="690"/>
      <point x="199" y="677"/>
    </contour>
    <contour>
      <point x="117" y="641" type="curve"/>
      <point x="117" y="650" type="line"/>
      <point x="74" y="641"/>
      <point x="39" y="614"/>
      <point x="39" y="565" type="curve" smooth="yes"/>
      <point x="39" y="507"/>
      <point x="89" y="463"/>
      <point x="176" y="463" type="curve" smooth="yes"/>
      <point x="263" y="463"/>
      <point x="313" y="507"/>
      <point x="313" y="565" type="curve" smooth="yes"/>
      <point x="313" y="614"/>
      <point x="278" y="641"/>
      <point x="235" y="650" type="curve"/>
      <point x="235" y="641" type="line"/>
      <point x="271" y="648"/>
      <point x="302" y="671"/>
      <point x="302" y="713" type="curve" smooth="yes"/>
      <point x="302" y="765"/>
      <point x="259" y="806"/>
      <point x="176" y="806" type="curve" smooth="yes"/>
      <point x="93" y="806"/>
      <point x="50" y="765"/>
      <point x="50" y="713" type="curve" smooth="yes"/>
      <point x="50" y="671"/>
      <point x="81" y="648"/>
    </contour>
    <contour>
      <point x="176" y="612" type="curve" smooth="yes"/>
      <point x="203" y="612"/>
      <point x="221" y="596"/>
      <point x="221" y="571" type="curve" smooth="yes"/>
      <point x="221" y="547"/>
      <point x="203" y="529"/>
      <point x="176" y="529" type="curve" smooth="yes"/>
      <point x="149" y="529"/>
      <point x="131" y="547"/>
      <point x="131" y="571" type="curve" smooth="yes"/>
      <point x="131" y="596"/>
      <point x="149" y="612"/>
    </contour>
  </outline>
</glyph>
<glyph name="four.sub" format="2">
  <advance width="350"/>
  <outline>
    <contour>
      <point x="272" y="290" type="line"/>
      <point x="155" y="290" type="line"/>
      <point x="51" y="93" type="line"/>
      <point x="51" y="16" type="line"/>
      <point x="320" y="16" type="line"/>
      <point x="320" y="90" type="line"/>
      <point x="92" y="90" type="line"/>
      <point x="113" y="66" type="line"/>
      <point x="221" y="274" type="line"/>
      <point x="187" y="271" type="line"/>
      <point x="187" y="-43" type="line"/>
      <point x="272" y="-43" type="line"/>
    </contour>
  </outline>
</glyph>
<glyph name="four.sup" format="2">
  <advance width="350"/>
  <outline>
    <contour>
      <point x="272" y="800" type="line"/>
      <point x="155" y="800" type="line"/>
      <point x="51" y="603" type="line"/>
      <point x="51" y="526" type="line"/>
      <point x="320" y="526" type="line"/>
      <point x="320" y="600" type="line"/>
      <point x="92" y="600" type="line"/>
      <point x="113" y="576" type="line"/>
      <point x="221" y="784" type="line"/>
      <point x="187" y="781" type="line"/>
      <point x="187" y="467" type="line"/>
      <point x="272" y="467" type="line"/>
    </contour>
  </outline>
</glyph>
<glyph name="gravecmb.uc" format="2">
  <advance width="600"/>
  <outline>
    <contour>
      <point x="313" y="892" type="line"/>
      <point x="391" y="760" type="line"/>
      <point x="281" y="760" type="line"/>
      <point x="172" y="892" type="line"/>
    </contour>
  </outline>
</glyph>
<glyph name="greater.tab" format="2">
  <advance width="600"/>
  <outline>
    <contour>
      <point x="544" y="402" type="line"/>
      <point x="544" y="279" type="line"/>
      <point x="56" y="55" type="line"/>
      <point x="56" y="187" type="line"/>
      <point x="478" y="380" type="line"/>
      <point x="478" y="301" type="line"/>
      <point x="56" y="494" type="line"/>
      <point x="56" y="626" type="line"/>
    </contour>
  </outline>
</glyph>
<glyph name="guillemetright.uc" format="2">
  <advance width="600"/>
  <outline>
    <contour>
      <point x="265" y="530" type="line"/>
      <point x="403" y="530" type="line"/>
      <point x="543" y="356" type="line"/>
      <point x="543" y="314" type="line"/>
      <point x="403" y="140" type="line"/>
      <point x="265" y="140" type="line"/>
      <point x="442" y="360" type="line"/>
      <point x="442" y="310" type="line"/>
    </contour>
    <contour>
      <point x="56" y="530" type="line"/>
      <point x="194" y="530" type="line"/>
      <point x="334" y="356" type="line"/>
      <point x="334" y="314" type="line"/>
      <point x="194" y="140" type="line"/>
      <point x="56" y="140" type="line"/>
      <point x="233" y="360" type="line"/>
      <point x="233" y="310" type="line"/>
    </contour>
  </outline>
</glyph>
<glyph name="guilsinglright.uc" format="2">
  <advance width="350"/>
  <outline>
    <contour>
      <point x="36" y="530" type="line"/>
      <point x="174" y="530" type="line"/>
      <point x="314" y="356" type="line"/>
      <point x="314" y="314" type="line"/>
      <point x="174" y="140" type="line"/>
      <point x="36" y="140" type="line"/>
      <point x="213" y="360" type="line"/>
      <point x="213" y="310" type="line"/>
    </contour>
  </outline>
</glyph>
<glyph name="hookabovecmb.uc" format="2">
  <advance width="600"/>
  <outline>
    <contour>
      <point x="308" y="860" type="curve" smooth="yes"/>
      <point x="308" y="834"/>
      <point x="283" y="817"/>
      <point x="239" y="806" type="curve"/>
      <point x="290" y="747" type="line"/>
      <point x="343" y="761"/>
      <point x="393" y="799"/>
      <point x="393" y="866" type="curve" smooth="yes"/>
      <point x="393" y="926"/>
      <point x="351" y="977"/>
      <point x="281" y="977" type="curve" smooth="yes"/>
      <point x="231" y="977"/>
      <point x="189" y="949"/>
      <point x="166" y="907" type="curve"/>
      <point x="226" y="860" type="line"/>
      <point x="235" y="877"/>
      <point x="252" y="894"/>
      <point x="274" y="894" type="curve" smooth="yes"/>
      <point x="294" y="894"/>
      <point x="308" y="880"/>
    </contour>
  </outline>
</glyph>
<glyph name="indianrupee.tab" format="2">
  <advance width="600"/>
  <outline>
    <contour>
      <point x="213" y="396" type="curve" smooth="yes"/>
      <point x="49" y="396" type="line"/>
      <point x="49" y="283" type="line"/>
      <point x="236" y="283" type="line" smooth="yes"/>
      <point x="391" y="283"/>
      <point x="467" y="359"/>
      <point x="467" y="487" type="curve" smooth="yes"/>
      <point x="467" y="534"/>
      <point x="454" y="597"/>
      <point x="390" y="631" type="curve"/>
      <point x="390" y="603" type="line"/>
      <point x="565" y="603" type="line"/>
      <point x="565" y="700" type="line"/>
      <point x="54" y="700" type="line"/>
      <point x="54" y="587" type="line"/>
      <point x="213" y="587" type="line" smooth="yes"/>
      <point x="277" y="587"/>
      <point x="313" y="558"/>
      <point x="313" y="491" type="curve" smooth="yes"/>
      <point x="313" y="425"/>
      <point x="277" y="396"/>
    </contour>
    <contour>
      <point x="118" y="314" type="line"/>
      <point x="176" y="220"/>
      <point x="274" y="79"/>
      <point x="339" y="0" type="curve"/>
      <point x="500" y="0" type="line"/>
      <point x="500" y="7" type="line"/>
      <point x="438" y="82"/>
      <point x="340" y="221"/>
      <point x="281" y="314" type="curve"/>
    </contour>
    <contour>
      <point x="54" y="443" type="line"/>
      <point x="565" y="443" type="line"/>
      <point x="565" y="540" type="line"/>
      <point x="54" y="540" type="line"/>
    </contour>
  </outline>
</glyph>
<glyph name="nine.sub" format="2">
  <advance width="350"/>
  <outline>
    <contour>
      <point x="177" y="296" type="curve" smooth="yes"/>
      <point x="88" y="296"/>
      <point x="45" y="245"/>
      <point x="45" y="177" type="curve" smooth="yes"/>
      <point x="45" y="109"/>
      <point x="88" y="72"/>
      <point x="147" y="72" type="curve" smooth="yes"/>
      <point x="201" y="72"/>
      <point x="232" y="98"/>
      <point x="240" y="146" type="curve"/>
      <point x="218" y="146" type="line"/>
      <point x="218" y="116" type="line" smooth="yes"/>
      <point x="218" y="67"/>
      <point x="208" y="21"/>
      <point x="176" y="21" type="curve" smooth="yes"/>
      <point x="158" y="21"/>
      <point x="147" y="34"/>
      <point x="146" y="55" type="curve"/>
      <point x="46" y="68" type="line"/>
      <point x="50" y="-6"/>
      <point x="101" y="-47"/>
      <point x="173" y="-47" type="curve" smooth="yes"/>
      <point x="271" y="-47"/>
      <point x="312" y="16"/>
      <point x="312" y="131" type="curve" smooth="yes"/>
      <point x="312" y="186"/>
      <point x="304" y="217"/>
      <point x="284" y="247" type="curve" smooth="yes"/>
      <point x="264" y="276"/>
      <point x="228" y="296"/>
    </contour>
    <contour>
      <point x="177" y="135" type="curve" smooth="yes"/>
      <point x="154" y="135"/>
      <point x="139" y="154"/>
      <point x="139" y="181" type="curve" smooth="yes"/>
      <point x="139" y="208"/>
      <point x="154" y="227"/>
      <point x="177" y="227" type="curve" smooth="yes"/>
      <point x="200" y="227"/>
      <point x="215" y="208"/>
      <point x="215" y="181" type="curve" smooth="yes"/>
      <point x="215" y="154"/>
      <point x="200" y="135"/>
    </contour>
  </outline>
</glyph>
<glyph name="one.den" format="2">
  <advance width="350"/>
  <outline>
    <contour>
      <point x="113" y="333" type="line"/>
      <point x="113" y="275"/>
      <point x="97" y="257"/>
      <point x="34" y="257" type="curve"/>
      <point x="34" y="186" type="line"/>
      <point x="159" y="186" type="line"/>
      <point x="106" y="249" type="line"/>
      <point x="106" y="0" type="line"/>
      <point x="199" y="0" type="line"/>
      <point x="199" y="333" type="line"/>
    </contour>
  </outline>
</glyph>
<glyph name="parenleft.uc" format="2">
  <advance width="600"/>
  <outline>
    <contour>
      <point x="283" y="331" type="curve" smooth="yes"/>
      <point x="283" y="471"/>
      <point x="356" y="620"/>
      <point x="505" y="745" type="curve"/>
      <point x="355" y="745" type="line"/>
      <point x="215" y="630"/>
      <point x="128" y="471"/>
      <point x="128" y="331" type="curve" smooth="yes"/>
      <point x="128" y="191"/>
      <point x="215" y="32"/>
      <point x="355" y="-83" type="curve"/>
      <point x="505" y="-83" type="line"/>
      <point x="356" y="42"/>
      <point x="283" y="191"/>
    </contour>
  </outline>
</glyph>
<glyph name="ringcmb.uc" format="2">
  <advance width="600"/>
  <outline>
    <contour>
      <point x="415" y="860" type="curve" smooth="yes"/>
      <point x="415" y="923"/>
      <point x="365" y="973"/>
      <point x="301" y="973" type="curve" smooth="yes"/>
      <point x="237" y="973"/>
      <point x="187" y="923"/>
      <point x="187" y="860" type="curve" smooth="yes"/>
      <point x="187" y="797"/>
      <point x="237" y="747"/>
      <point x="301" y="747" type="curve" smooth="yes"/>
      <point x="365" y="747"/>
      <point x="415" y="797"/>
    </contour>
    <contour>
      <point x="339" y="860" type="curve" smooth="yes"/>
      <point x="339" y="839"/>
      <point x="325" y="821"/>
      <point x="301" y="821" type="curve" smooth="yes"/>
      <point x="277" y="821"/>
      <point x="263" y="839"/>
      <point x="263" y="860" type="curve" smooth="yes"/>
      <point x="263" y="881"/>
      <point x="277" y="899"/>
      <point x="301" y="899" type="curve" smooth="yes"/>
      <point x="325" y="899"/>
      <point x="339" y="881"/>
    </contour>
  </outline>
</glyph>
<glyph name="seven.sup" format="2">
  <advance width="350"/>
  <outline>
    <contour>
      <point x="48" y="800" type="line"/>
      <point x="48" y="663" type="line"/>
      <point x="134" y="663" type="line"/>
      <point x="134" y="753" type="line"/>
      <point x="100" y="724" type="line"/>
      <point x="265" y="724" type="line"/>
      <point x="240" y="761" type="line"/>
      <point x="175" y="667"/>
      <point x="127" y="581"/>
      <point x="122" y="467" type="curve"/>
      <point x="218" y="467" type="line"/>
      <point x="224" y="578"/>
      <point x="258" y="655"/>
      <point x="312" y="744" type="curve"/>
      <point x="312" y="800" type="line"/>
    </contour>
  </outline>
</glyph>
<glyph name="six.num" format="2">
  <advance width="350"/>
  <outline>
    <contour>
      <point x="153" y="363" type="curve" smooth="yes"/>
      <point x="242" y="363"/>
      <point x="285" y="418"/>
      <point x="285" y="479" type="curve" smooth="yes"/>
      <point x="285" y="547"/>
      <point x="245" y="590"/>
      <point x="182" y="590" type="curve" smooth="yes"/>
      <point x="130" y="590"/>
      <point x="94" y="561"/>
      <point x="85" y="513" type="curve"/>
      <point x="111" y="513" type="line"/>
      <point x="111" y="542" type="line" smooth="yes"/>
      <point x="111" y="605"/>
      <point x="136" y="631"/>
      <point x="162" y="631" type="curve" smooth="yes"/>
      <point x="177" y="631"/>
      <point x="186" y="624"/>
      <point x="187" y="607" type="curve"/>
      <point x="280" y="597" type="line"/>
      <point x="277" y="664"/>
      <point x="235" y="706"/>
      <point x="165" y="706" type="curve" smooth="yes"/>
      <point x="74" y="706"/>
      <point x="17" y="635"/>
      <point x="17" y="525" type="curve" smooth="yes"/>
      <point x="17" y="478"/>
      <point x="26" y="441"/>
      <point x="43" y="417" type="curve" smooth="yes"/>
      <point x="66" y="383"/>
      <point x="99" y="363"/>
    </contour>
    <contour>
      <point x="153" y="431" type="curve" smooth="yes"/>
      <point x="130" y="431"/>
      <point x="115" y="450"/>
      <point x="115" y="478" type="curve" smooth="yes"/>
      <point x="115" y="506"/>
      <point x="130" y="525"/>
      <point x="153" y="525" type="curve" smooth="yes"/>
      <point x="177" y="525"/>
      <point x="191" y="506"/>
      <point x="191" y="478" type="curve" smooth="yes"/>
      <point x="191" y="450"/>
      <point x="177" y="431"/>
    </contour>
  </outline>
</glyph>
<glyph name="six.sup" format="2">
  <advance width="350"/>
  <outline>
    <contour>
      <point x="174" y="463" type="curve" smooth="yes"/>
      <point x="263" y="463"/>
      <point x="306" y="518"/>
      <point x="306" y="579" type="curve" smooth="yes"/>
      <point x="306" y="647"/>
      <point x="266" y="690"/>
      <point x="203" y="690" type="curve" smooth="yes"/>
      <point x="151" y="690"/>
      <point x="115" y="661"/>
      <point x="106" y="613" type="curve"/>
      <point x="132" y="613" type="line"/>
      <point x="132" y="642" type="line" smooth="yes"/>
      <point x="132" y="705"/>
      <point x="157" y="731"/>
      <point x="183" y="731" type="curve" smooth="yes"/>
      <point x="198" y="731"/>
      <point x="207" y="724"/>
      <point x="208" y="707" type="curve"/>
      <point x="301" y="697" type="line"/>
      <point x="298" y="764"/>
      <point x="256" y="806"/>
      <point x="186" y="806" type="curve" smooth="yes"/>
      <point x="95" y="806"/>
      <point x="38" y="735"/>
      <point x="38" y="625" type="curve" smooth="yes"/>
      <point x="38" y="578"/>
      <point x="47" y="541"/>
      <point x="64" y="517" type="curve" smooth="yes"/>
      <point x="87" y="483"/>
      <point x="120" y="463"/>
    </contour>
    <contour>
      <point x="174" y="531" type="curve" smooth="yes"/>
      <point x="151" y="531"/>
      <point x="136" y="550"/>
      <point x="136" y="578" type="curve" smooth="yes"/>
      <point x="136" y="606"/>
      <point x="151" y="625"/>
      <point x="174" y="625" type="curve" smooth="yes"/>
      <point x="198" y="625"/>
      <point x="212" y="606"/>
      <point x="212" y="578" type="curve" smooth="yes"/>
      <point x="212" y="550"/>
      <point x="198" y="531"/>
    </contour>
  </outline>
</glyph>
<glyph name="slash.uc" format="2">
  <advance width="600"/>
  <outline>
    <contour>
      <point x="438" y="745" type="line"/>
      <point x="24" y="-83" type="line"/>
      <point x="174" y="-83" type="line"/>
      <point x="588" y="745" type="line"/>
    </contour>
  </outline>
</glyph>
<glyph name="three.den" format="2">
  <advance width="350"/>
  <outline>
    <contour>
      <point x="25" y="116" type="line"/>
      <point x="20" y="34"/>
      <point x="79" y="-6"/>
      <point x="158" y="-6" type="curve" smooth="yes"/>
      <point x="242" y="-6"/>
      <point x="286" y="38"/>
      <point x="286" y="97" type="curve" smooth="yes"/>
      <point x="286" y="142"/>
      <point x="260" y="167"/>
      <point x="221" y="175" type="curve"/>
      <point x="221" y="170" type="line"/>
      <point x="248" y="178"/>
      <point x="278" y="197"/>
      <point x="278" y="241" type="curve" smooth="yes"/>
      <point x="278" y="290"/>
      <point x="243" y="337"/>
      <point x="156" y="337" type="curve" smooth="yes"/>
      <point x="78" y="337"/>
      <point x="22" y="294"/>
      <point x="28" y="216" type="curve"/>
      <point x="123" y="222" type="line"/>
      <point x="120" y="247"/>
      <point x="131" y="265"/>
      <point x="153" y="265" type="curve" smooth="yes"/>
      <point x="168" y="265"/>
      <point x="183" y="255"/>
      <point x="183" y="234" type="curve" smooth="yes"/>
      <point x="183" y="215"/>
      <point x="171" y="204"/>
      <point x="157" y="204" type="curve" smooth="yes"/>
      <point x="136" y="204" type="line"/>
      <point x="136" y="137" type="line"/>
      <point x="157" y="137" type="line" smooth="yes"/>
      <point x="178" y="137"/>
      <point x="192" y="126"/>
      <point x="192" y="103" type="curve" smooth="yes"/>
      <point x="192" y="79"/>
      <point x="179" y="66"/>
      <point x="157" y="66" type="curve" smooth="yes"/>
      <point x="130" y="66"/>
      <point x="115" y="84"/>
      <point x="119" y="110" type="curve"/>
    </contour>
  </outline>
</glyph>
<glyph name="three.num" format="2">
  <advance width="350"/>
  <outline>
    <contour>
      <point x="23" y="485" type="line"/>
      <point x="18" y="403"/>
      <point x="77" y="363"/>
      <point x="156" y="363" type="curve" smooth="yes"/>
      <point x="240" y="363"/>
      <point x="284" y="407"/>
      <point x="284" y="466" type="curve" smooth="yes"/>
      <point x="284" y="511"/>
      <point x="258" y="536"/>
      <point x="219" y="544" type="curve"/>
      <point x="219" y="539" type="line"/>
      <point x="246" y="547"/>
      <point x="276" y="566"/>
      <point x="276" y="610" type="curve" smooth="yes"/>
      <point x="276" y="659"/>
      <point x="241" y="706"/>
      <point x="154" y="706" type="curve" smooth="yes"/>
      <point x="76" y="706"/>
      <point x="20" y="663"/>
      <point x="26" y="585" type="curve"/>
      <point x="121" y="591" type="line"/>
      <point x="118" y="616"/>
      <point x="129" y="634"/>
      <point x="151" y="634" type="curve" smooth="yes"/>
      <point x="166" y="634"/>
      <point x="181" y="624"/>
      <point x="181" y="603" type="curve" smooth="yes"/>
      <point x="181" y="584"/>
      <point x="169" y="573"/>
      <point x="155" y="573" type="curve" smooth="yes"/>
      <point x="134" y="573" type="line"/>
      <point x="134" y="506" type="line"/>
      <point x="155" y="506" type="line" smooth="yes"/>
      <point x="176" y="506"/>
      <point x="190" y="495"/>
      <point x="190" y="472" type="curve" smooth="yes"/>
      <point x="190" y="448"/>
      <point x="177" y="435"/>
      <point x="155" y="435" type="curve" smooth="yes"/>
      <point x="128" y="435"/>
      <point x="113" y="453"/>
      <point x="117" y="479" type="curve"/>
    </contour>
  </outline>
</glyph>
<glyph name="three.sub" format="2">
  <advance width="350"/>
  <outline>
    <contour>
      <point x="44" y="75" type="line"/>
      <point x="39" y="-7"/>
      <point x="98" y="-47"/>
      <point x="177" y="-47" type="curve" smooth="yes"/>
      <point x="261" y="-47"/>
      <point x="305" y="-3"/>
      <point x="305" y="56" type="curve" smooth="yes"/>
      <point x="305" y="101"/>
      <point x="279" y="126"/>
      <point x="240" y="134" type="curve"/>
      <point x="240" y="129" type="line"/>
      <point x="267" y="137"/>
      <point x="297" y="156"/>
      <point x="297" y="200" type="curve" smooth="yes"/>
      <point x="297" y="249"/>
      <point x="262" y="296"/>
      <point x="175" y="296" type="curve" smooth="yes"/>
      <point x="97" y="296"/>
      <point x="41" y="253"/>
      <point x="47" y="175" type="curve"/>
      <point x="142" y="181" type="line"/>
      <point x="139" y="206"/>
      <point x="150" y="224"/>
      <point x="172" y="224" type="curve" smooth="yes"/>
      <point x="187" y="224"/>
      <point x="202" y="214"/>
      <point x="202" y="193" type="curve" smooth="yes"/>
      <point x="202" y="174"/>
      <point x="190" y="163"/>
      <point x="176" y="163" type="curve" smooth="yes"/>
      <point x="155" y="163" type="line"/>
      <point x="155" y="96" type="line"/>
      <point x="176" y="96" type="line" smooth="yes"/>
      <point x="197" y="96"/>
      <point x="211" y="85"/>
      <point x="211" y="62" type="curve" smooth="yes"/>
      <point x="211" y="38"/>
      <point x="198" y="25"/>
      <point x="176" y="25" type="curve" smooth="yes"/>
      <point x="149" y="25"/>
      <point x="134" y="43"/>
      <point x="138" y="69" type="curve"/>
    </contour>
  </outline>
</glyph>
<glyph name="three.sup" format="2">
  <advance width="350"/>
  <outline>
    <contour>
      <point x="44" y="585" type="line"/>
      <point x="39" y="503"/>
      <point x="98" y="463"/>
      <point x="177" y="463" type="curve" smooth="yes"/>
      <point x="261" y="463"/>
      <point x="305" y="507"/>
      <point x="305" y="566" type="curve" smooth="yes"/>
      <point x="305" y="611"/>
      <point x="279" y="636"/>
      <point x="240" y="644" type="curve"/>
      <point x="240" y="639" type="line"/>
      <point x="267" y="647"/>
      <point x="297" y="666"/>
      <point x="297" y="710" type="curve" smooth="yes"/>
      <point x="297" y="759"/>
      <point x="262" y="806"/>
      <point x="175" y="806" type="curve" smooth="yes"/>
      <point x="97" y="806"/>
      <point x="41" y="763"/>
      <point x="47" y="685" type="curve"/>
      <point x="142" y="691" type="line"/>
      <point x="139" y="716"/>
      <point x="150" y="734"/>
      <point x="172" y="734" type="curve" smooth="yes"/>
      <point x="187" y="734"/>
      <point x="202" y="724"/>
      <point x="202" y="703" type="curve" smooth="yes"/>
      <point x="202" y="684"/>
      <point x="190" y="673"/>
      <point x="176" y="673" type="curve" smooth="yes"/>
      <point x="155" y="673" type="line"/>
      <point x="155" y="606" type="line"/>
      <point x="176" y="606" type="line" smooth="yes"/>
      <point x="197" y="606"/>
      <point x="211" y="595"/>
      <point x="211" y="572" type="curve" smooth="yes"/>
      <point x="211" y="548"/>
      <point x="198" y="535"/>
      <point x="176" y="535" type="curve" smooth="yes"/>
      <point x="149" y="535"/>
      <point x="134" y="553"/>
      <point x="138" y="579" type="curve"/>
    </contour>
  </outline>
</glyph>
<glyph name="two.den" format="2">
  <advance width="350"/>
  <outline>
    <contour>
      <point x="274" y="1" type="line"/>
      <point x="274" y="78" type="line"/>
      <point x="91" y="78" type="line"/>
      <point x="87" y="22" type="line"/>
      <point x="194" y="106"/>
      <point x="274" y="154"/>
      <point x="274" y="230" type="curve" smooth="yes"/>
      <point x="274" y="280"/>
      <point x="244" y="339"/>
      <point x="154" y="339" type="curve" smooth="yes"/>
      <point x="69" y="339"/>
      <point x="32" y="285"/>
      <point x="32" y="234" type="curve" smooth="yes"/>
      <point x="32" y="219"/>
      <point x="35" y="205"/>
      <point x="45" y="189" type="curve"/>
      <point x="132" y="200" type="line"/>
      <point x="126" y="211"/>
      <point x="124" y="221"/>
      <point x="124" y="229" type="curve" smooth="yes"/>
      <point x="124" y="255"/>
      <point x="135" y="265"/>
      <point x="152" y="265" type="curve" smooth="yes"/>
      <point x="169" y="265"/>
      <point x="179" y="256"/>
      <point x="179" y="229" type="curve" smooth="yes"/>
      <point x="179" y="193"/>
      <point x="143" y="166"/>
      <point x="37" y="76" type="curve"/>
      <point x="37" y="1" type="line"/>
    </contour>
  </outline>
</glyph>
<glyph name="two.sub" format="2">
  <advance width="350"/>
  <outline>
    <contour>
      <point x="295" y="-42" type="line"/>
      <point x="295" y="35" type="line"/>
      <point x="112" y="35" type="line"/>
      <point x="108" y="-21" type="line"/>
      <point x="215" y="63"/>
      <point x="295" y="111"/>
      <point x="295" y="187" type="curve" smooth="yes"/>
      <point x="295" y="237"/>
      <point x="265" y="296"/>
      <point x="175" y="296" type="curve" smooth="yes"/>
      <point x="90" y="296"/>
      <point x="53" y="242"/>
      <point x="53" y="191" type="curve" smooth="yes"/>
      <point x="53" y="176"/>
      <point x="56" y="162"/>
      <point x="66" y="146" type="curve"/>
      <point x="153" y="157" type="line"/>
      <point x="147" y="168"/>
      <point x="145" y="178"/>
      <point x="145" y="186" type="curve" smooth="yes"/>
      <point x="145" y="212"/>
      <point x="156" y="222"/>
      <point x="173" y="222" type="curve" smooth="yes"/>
      <point x="190" y="222"/>
      <point x="200" y="213"/>
      <point x="200" y="186" type="curve" smooth="yes"/>
      <point x="200" y="150"/>
      <point x="164" y="123"/>
      <point x="58" y="33" type="curve"/>
      <point x="58" y="-42" type="line"/>
    </contour>
  </outline>
</glyph>
